<?xml version="1.0" standalone="no"?>
<!DOCTYPE svg PUBLIC "-//W3C//DTD SVG 1.1//EN" "http://www.w3.org/Graphics/SVG/1.1/DTD/svg11.dtd" >
<svg xmlns="http://www.w3.org/2000/svg">
<metadata>Generated by IcoMoon</metadata>
<defs>
<font id="icomoon" horiz-adv-x="512">
<font-face units-per-em="512" ascent="480" descent="-32" />
<missing-glyph horiz-adv-x="512" />
<glyph unicode="&#x20;" d="" horiz-adv-x="256" />
<glyph unicode="&#x2665;" d="M192 48c199.5 157 192 212.5 192 256s-36 96-96 96-96-64-96-64-36 64-96 64-96-52.5-96-96-7.5-99 192-256z" horiz-adv-x="384" />
<glyph unicode="&#x26a1;" d="M320 256h-128l96 224-288-288h128l-96-224 288 288z" horiz-adv-x="320" />
<glyph unicode="&#xe600;" d="M88.118 189.381c-52.469-5.858-70.189-4.063-39.491-57.842s91.96 63.7 39.491 57.842zM163.275 351.726c-28.096 11.212 23.3 9.483 0 0zM80.733 290.622c-0.141 28.887 5.424 56.358 25.365 80.229 3.151 22.72 40.151 46.859 41.612 53.149-3.643 16.070-47.516-27.399-34.215-10.572 13.665 26.484 69.419 43.136 92.406 42.261 25.296-3.446 3.094-12.61-2.339-13.555 21.738 3.746 58.87-32.337 68.663-5.941 2.224 4.883 0.887 8.153-2.156 11.996-15.303 19.162-41.517 0.142-58.679 13.925-17.65 10.899-39.669-4.398-62.556-15.261s99.219 40.386 139.209 12.745c2.913-1.786 4.11-3.379 4.636-6.347 3.858-20.753 18.44-58.934 61.080-60.005 0.963-10.243-49.659-15.079-42.486 26.114 0.074 3.822 2.901 6.803 3.195 10.199 1.094 14.367-23.541 35.639-31.152-0.527 53.301-73.624 52.606-132.267 32.967-179.597s-74.851-118.271-26.008-215.951c48.843-97.68-171.778-41.358-232.618 11.525s-67.879 204.744 23.076 245.613zM224.174 82.184c-14.095 17.313-27.314 40.66-13.722 59.464-16.014-0.224-20.405-24.068-56.724 11.956-11.326 10.167-17.204-10.671-30.39-1.546-16.407-5.142-3.918-59.622-19.219-38.023-123.028-55.67 176.287-169.325 129.010-46.038-1.554 5.885-5.5 9.954-8.954 14.188zM258.166 256.984c17.43 33.963 23.725 75.128 25.415 112.511-5.246 37.223-46.833 60.774-81.832 54.343-23.474-3.632-44.294-26.493-36.834-42.987 6.571-11.508 17.671-10.871 23.895-16.335 12.042-11.434-0.462-32.354-15.346-15.968-14.83 9.062-12.131-16.847-26.215 2.067-26.912 16.171-31.043-38.122-30.188-56.899-0.853-10.868 1.283-19.643-7.354-11.587-6.62-120.694 104.258-102.321 148.457-25.146zM238.399 231.054c-0.183 2.669 1.292-1.189 0 0zM183.297 241.394c-15.553 2.941-47.595 19.774-24.39 21.985 2.409 0.346 4.266 0.25 6.299-0.46 10.035-3.39 38.309-10.93 24.93-20.333-2.164-1.854-4.424-1.642-6.84-1.191zM194.327 278.724c-13.999 7.627-36.599 23.019-6.148 11.789 5.272-1.113 14.871-5.717 9.626-11.635-1.201-1.625-2.044-0.926-3.479-0.154zM257.37 303.17c-13.964 5.554-58.451 20.557-27.732 33.653 12.304 7.111 33.895-9.777 12.101-6.040-2.138 0.706-3.893 0.274-5.902-0.327-19.922-6.41 32.124-12.021 21.533-27.286zM264.814 236.030c15.449-1.226 22.634 41.112 4.738 19.029 2.854 26.948-38.685-35.967-4.738-19.029zM188.212 343.783c12.863 24.304-55.12 39.605-28.162 16.579 10.554-1.879 27.12-2.381 28.162-16.579zM156.379 396.944c16.489 12.96-6.162 11.834-9.312-8.699 0.92 0.716 8.392 7.983 9.312 8.699zM168.761 417.005c11.011 2.651 25.929 20.756 12.403 14.15-3.148-1.812-3.613-2.545-5.348-4.22-4.363-4.203-12.795-11.976-7.054-9.931z" horiz-adv-x="366" />
<glyph unicode="&#xe601;" d="M0.099 224.038c-3.333 111.507 77.7 218.020 185.283 246.377 86.66 24.653 186.051 1.204 249.186-64.055 51.762-49.623 81.034-121.506 76.958-193.274-2.594-106.192-79.789-204.832-181.556-234.322-84.030-25.281-180.909-5.644-245.464 54.837-53.907 47.776-85.921 118.212-84.406 190.436zM133.155 224.038c-2.656-70.969 68.070-133.158 138.167-121.894 67.009 6.98 119.249 77.033 105.51 143.332-10.193 64.118-77.774 112.586-141.867 99.673-56.864-9.058-103.537-63.141-101.809-121.111z" />
<glyph unicode="&#xf000;" d="M256 448c-88.365 0-160-71.635-160-160 0-52.345 25.139-98.817 64-128.007v-95.993c0-17.673 14.327-32 32-32 0-17.673 14.327-32 32-32h64c17.673 0 32 14.327 32 32 17.673 0 32 14.327 32 32v95.993c38.861 29.191 64 75.662 64 128.007 0 88.365-71.635 160-160 160zM320 80c0-8.837-7.163-16-16-16h-96c-8.837 0-16 7.163-16 16v16h128v-16zM352 203.346c-16.617-16.515-32-21.195-32-62.020v-13.326h-32v64l64 64v32l-32 32-32-32-32 32-32-32-32 32-32-32v-32l64-64v-64h-32v13.326c0 40.826-15.383 45.505-32 62.020-19.911 22.564-32 52.195-32 84.654 0 70.692 57.308 128 128 128s128-57.308 128-128c0-32.459-12.089-62.090-32-84.654zM256 192l-64 64v32l32-32 32 32 32-32 32 32v-32l-64-64z" />
<glyph unicode="&#xf001;" d="M160 352h-32v-32h32v32zM160 416h-32v-32h32v32zM352 480c-16 0-304 0-320 0s-32-16-32-32 0-368 0-384 16-32 32-32 64 0 64 0v-64l48 48 48-48v64s144 0 160 0 32 16 32 32 0 368 0 384-16 32-32 32zM352 80c0-8-7.5-16-16-16s-144 0-144 0v32h-96v-32s-39.5 0-48 0-16 8.5-16 16 0 48 0 48h320s0-40 0-48zM352 160h-256v288h256.5l-0.5-288zM160 224h-32v-32h32v32zM160 288h-32v-32h32v32z" horiz-adv-x="384" />
<glyph unicode="&#xf002;" d="M384 416c0 35.5-28.5 64-64 64s-64-28.5-64-64c0-23.5 13-44.5 32-55.5v-53l-96-106-96 106v53c19 11 32 31.5 32 55.5 0 35.5-28.5 64-64 64s-64-28.5-64-64c0-23.5 13-44.5 32-55.5v-78l128-141v-54.5c-19-11-32-31.5-32-55.5 0-35.5 28.5-64 64-64s64 28.5 64 64c0 23.5-13 44.5-32 55.5v54.5l128 141v78c19 11 32 31.5 32 55.5zM64 447.5c17 0 31-14 31-31s-14-31-31-31-31 14-31 31 14 31 31 31zM192 2c-17 0-31 14-31 31s14 31 31 31 31-14 31-31-14-31-31-31zM320 447.5c17 0 31-14 31-31s-14-31-31-31-31 14-31 31 14 31 31 31z" horiz-adv-x="384" />
<glyph unicode="&#xf005;" d="M224 320l-96-128h64v-224h64v224h64l-96 128zM128 320h32v32h-32v-32zM160 416h-32v-32h32v32zM352 480c-16 0-304 0-320 0s-32-16-32-32 0-368 0-384 16-32 32-32 64 0 64 0v-64l64 64v64h-64v-32s-39.5 0-48 0-16 7-16 16 0 48 0 48h128v32h-64v288h256.5l-0.5-288h-64v-32h64s0-39.5 0-48-7.5-16-16-16-48 0-48 0v-32s48 0 64 0 32 16 32 32 0 368 0 384-16 32-32 32z" horiz-adv-x="384" />
<glyph unicode="&#xf006;" d="M512 320l-96 96v-64h-192v-64h192v-64l96 96zM352 160h-256v288h256v-64h32s0 48 0 64-16 32-32 32-304 0-320 0-32-16-32-32 0-368 0-384 16-32 32-32 64 0 64 0v-64l48 48 48-48v64s144 0 160 0 32 16 32 32 0 192 0 192h-32v-96zM352 80c0-7.5-7.5-16-16-16s-144 0-144 0v32h-96v-32s-39.5 0-48 0-16 8-16 16 0 48 0 48h320s0-40.5 0-48zM160 352h-32v-32h32v32zM160 416h-32v-32h32v32zM160 288h-32v-32h32v32zM128 192h32v32h-32v-32z" />
<glyph unicode="&#xf007;" d="M384 192h-64c-17 0-32-16-32-32h128c0 17-16 32-32 32zM356.5 400c-83.5 0-104.5-16-116.5-28-12 12-33 28-116.5 28s-123.5-23-123.5-39v-293c14.5 8 59.5 24 107 28 57.5 4.5 117-4.5 117-16 0-8 4-15.5 15.5-16 0 0 0 0 0.5 0 0 0 0 0 0.5 0 11.5 0.5 15.5 8 15.5 16 0 11.5 59.5 20.5 117 16 47-3.5 92.5-20 107-28v293c0 16-40 39-123.5 39zM224 114c-15 8-51.5 14-96 14s-85-6-96-13.5c0 0 0 205.5 0 221.5s32 29.5 96 29.5 96-13.5 96-29.5 0-222 0-222zM448 114.5c-11 7.5-51.5 13.5-96 13.5s-81-6-96-14c0 0 0 206 0 222s32 29.5 96 29.5 96-13.5 96-29.5 0-221.5 0-221.5zM384 256h-64c-17 0-32-16-32-32h128c0 17-16 32-32 32zM384 320h-64c-17 0-32-16-32-32h128c0 17-16 32-32 32zM160 256h-64c-16 0-32-15-32-32h128c0 16-15 32-32 32zM160 192h-64c-16 0-32-15-32-32h128c0 16-15 32-32 32zM160 320h-64c-16 0-32-15-32-32h128c0 16-15 32-32 32z" />
<glyph unicode="&#xf008;" d="M470.406 341.156c4.125 10.109 17.688 50.875-4.281 105.953 0 0-33.688 10.656-109.938-41.453-31.938 8.781-66.25 10.094-100.188 10.094-33.953 0-68.219-1.313-100.25-10.125-76.234 52.14-109.891 41.485-109.891 41.485-21.953-55.11-8.391-95.844-4.266-105.954-25.844-27.937-41.594-63.594-41.594-107.328 0-164.609 106.625-201.828 255.422-201.828 148.859 0 256.578 37.219 256.578 201.828 0 43.734-15.75 79.391-41.594 107.328zM256 63.5c-105.703 0-191.391 4.938-191.391 107.344 0 24.469 12.031 47.298 32.672 66.156 34.375 31.485 92.641 14.844 158.719 14.844 66.125 0 124.313 16.641 158.719-14.813 20.656-18.89 32.719-41.656 32.719-66.156-0.001-102.438-85.751-107.375-191.439-107.375zM175.578 223.781c-21.234 0-38.453-25.531-38.453-57.094s17.219-57.156 38.453-57.156c21.188 0 38.406 25.594 38.406 57.156s-17.219 57.094-38.406 57.094zM336.438 223.781c-21.188 0-38.438-25.531-38.438-57.094s17.25-57.156 38.438-57.156 38.406 25.594 38.406 57.156c0.031 31.563-17.188 57.094-38.406 57.094z" />
<glyph unicode="&#xf009;" d="M352 119s0 153 0 201-48 96-96 96c-32 0-32 0-32 0v64l-96-96 96-96v64s16 0 32 0 32-16 32-32 0-201 0-201c-19-11-32-31.5-32-55 0-35.5 28.5-64 64-64s64 28.5 64 64c0 23.5-13 44-32 55zM320 32c-17.5 0-32 14.5-32 32s14.5 32 32 32 32-14.5 32-32-14.5-32-32-32zM64 448c-35.5 0-64-28.5-64-64 0-23.5 13-44 32-55v-209.5c-19-11-32-31.5-32-55 0-35.5 28.5-64 64-64s64 28.5 64 64c0 23.5-13 44-32 55v209.5c19 11 32 31.5 32 55 0 35.5-28.5 64-64 64zM64 32c-17.5 0-32 14.5-32 32s14.5 32 32 32 32-14.5 32-32-14.5-32-32-32zM64 352c-17.5 0-32 14.5-32 32s14.5 32 32 32 32-14.5 32-32-14.5-32-32-32z" horiz-adv-x="384" />
<glyph unicode="&#xf00a;" d="M256 480c-141.375 0-256-114.625-256-256 0-113.125 73.344-209.063 175.078-242.906 12.797-2.344 17.469 5.563 17.469 12.313 0 6.094-0.234 26.281-0.359 47.656-71.188-15.469-86.234 30.188-86.234 30.188-11.656 29.563-28.422 37.438-28.422 37.438-23.266 15.875 1.765 15.563 1.765 15.563 25.703-1.781 39.235-26.375 39.235-26.375 22.844-39.125 59.938-27.813 74.5-21.25 2.327 16.5 8.952 27.813 16.25 34.188-56.828 6.469-116.609 28.438-116.609 126.531 0 27.969 9.984 50.781 26.328 68.703-2.609 6.5-11.422 32.547 2.531 67.781 0 0 21.469 6.875 70.406-26.25 20.406 5.703 42.297 8.516 64.063 8.61 21.75-0.094 43.656-2.938 64.094-8.64 48.844 33.156 70.344 26.25 70.344 26.25 14-35.266 5.188-61.281 2.563-67.75 16.406-17.922 26.313-40.735 26.313-68.703 0-98.344-59.875-120-116.906-126.344 9.219-7.938 17.375-23.5 17.375-47.375 0-34.219-0.344-61.813-0.344-70.25 0-6.813 4.656-14.781 17.625-12.281 101.656 33.906 174.938 129.844 174.938 242.906 0 141.375-114.625 256-256 256z" />
<glyph unicode="&#xf00b;" d="M416 320c-4.375 0-8.563-0.703-12.813-1.281-24.375 57.156-81.125 97.281-147.188 97.281-66.078 0-122.781-40.125-147.203-97.281-4.219 0.578-8.406 1.281-12.797 1.281-53.031 0-96-42.969-96-96s42.969-96 96-96c10.266 0 19.938 2.125 29.188 5.188 17.047-18.875 40.469-31.563 66.813-35.438v32.625c-24.922 5.188-45.797 21.406-56.313 43.938-10.922-8.813-24.578-14.313-39.688-14.313-35.328 0-64 28.688-64 64 0 35.328 28.672 64 64 64 12.641 0 24.313-3.781 34.203-10.047 10.469 60.157 62.594 106.047 125.797 106.047 63.25 0 114.875-46.11 125.25-106.375 10 6.5 21.938 10.375 34.75 10.375 35.313 0 64-28.672 64-64 0-35.313-28.688-64-64-64-5.125 0-10 0.75-14.813 1.875-14.469-20.438-38.219-33.875-65.188-33.875-5.531 0-10.813 0.813-16 2v-32.469c5.219-0.844 10.531-1.531 16-1.531 30.594 0 58.25 12.313 78.469 32.219 0.531-0.031 0.969-0.219 1.531-0.219 53.031 0 96 42.969 96 96s-42.969 96-96 96zM288 224h-64v-160h-64l96-96 96 96h-64v160z" />
<glyph unicode="&#xf00c;" d="M256 288l-96-96h64v-160h64v160h64l-96 96zM416 320c-4.375 0-8.563-0.703-12.813-1.281-24.375 57.187-81.125 97.281-147.188 97.281-66.078 0-122.781-40.094-147.203-97.281-4.219 0.578-8.406 1.281-12.797 1.281-53.031 0-96-43-96-96 0-53.031 42.969-96 96-96 10.266 0 19.938 2.125 29.188 5.219 17.047-18.906 40.469-31.594 66.813-35.469v32.625c-24.922 5.188-45.797 21.406-56.313 43.875-10.922-8.75-24.578-14.25-39.688-14.25-35.328 0-64 28.688-64 64 0 35.328 28.672 64 64 64 12.641 0 24.313-3.781 34.203-10.078 10.469 60.188 62.594 106.078 125.797 106.078 63.25 0 114.875-46.11 125.25-106.375 10 6.5 21.938 10.375 34.75 10.375 35.313 0 64-28.672 64-64 0-35.313-28.688-64-64-64-5.125 0-10 0.75-14.813 1.875-14.469-20.438-38.219-33.875-65.188-33.875-5.531 0-10.813 0.813-16 2v-32.469c5.219-0.844 10.531-1.531 16-1.531 30.594 0 58.25 12.344 78.5 32.219 0.5 0 0.938-0.219 1.5-0.219 53.031 0 96 42.969 96 96 0 53-42.969 96-96 96z" />
<glyph unicode="&#xf00d;" d="M320 192h32v64h-32v-64zM384 352h-32v-64h32v64zM320 352h-32v-64h32v64zM256 192h32v64h-32v-64zM192 96h160v64h-160v-64zM384 192h64v160h-32v-96h-32v-64zM128 96h32v64h-32v-64zM384 96h64v64h-64v-64zM256 352h-32v-64h32v64zM96 256h-32v-64h32v64zM96 160h-32v-64h32v64zM0 416v-384h512v384h-512zM480 64h-448v320h448v-320zM192 192h32v64h-32v-64zM128 352h-64v-64h64v64zM192 352h-32v-64h32v64zM128 192h32v64h-32v-64z" />
<glyph unicode="&#xf00e;" d="M208 288l48-48-48-48 32-32 80 80-80 80-32-32zM0 448v-416h384v416h-384zM352 64h-320v352h320v-352zM176 192l-48 48 48 48-32 32-80-80 80-80 32 32z" horiz-adv-x="384" />
<glyph unicode="&#xf010;" d="M144 288l-80-80 80-80 32 32-48 48 48 48-32 32zM208 256l48-48-48-48 32-32 80 80-80 80-32-32zM288 448h-288v-448h384v352l-96 96zM352 32h-320v384h224l96-96v-288z" horiz-adv-x="384" />
<glyph unicode="&#xf011;" d="M224 352h-160v-32h160v32zM288 448h-288v-448h384v352l-96 96zM352 32h-320v384h224l96-96v-288zM64 96h256v32h-256v-32zM64 160h256v32h-256v-32zM64 224h256v32h-256v-32z" horiz-adv-x="384" />
<glyph unicode="&#xf012;" d="M288 448h-288v-448h384v352l-96 96zM352 32h-320v384h224l96-96v-288zM64 352v-256h64c0 35.313 28.672 64 64 64-35.328 0-64 28.688-64 64 0 35.328 28.672 64 64 64 35.313 0 64-28.672 64-64 0-35.313-28.688-64-64-64 35.313 0 64-28.688 64-64h64v192l-64 64h-192z" horiz-adv-x="384" />
<glyph unicode="&#xf013;" d="M160 192v32h-32v-32h32zM160 256v32h-32v-32h32zM160 320v32h-32v-32h32zM96 288h32v32h-32v-32zM288 448h-288v-448h384v352l-96 96zM352 32h-320v384h96v-32h32v32h96l96-96v-288zM96 352h32v32h-32v-32zM96 224h32v32h-32v-32zM96 160l-32-32v-64h128v64l-32 32h-32v32h-32v-32zM160 128v-32h-64v32h64z" horiz-adv-x="384" />
<glyph unicode="&#xf014;" d="M288 448h-288v-448h384v352l-96 96zM32 416h127.906c-6.594-2.047-13.641-7.515-17.313-21.438-6.625-24.703-3.516-65.375 7.813-104.672-12.062-40.609-61.312-138.328-64.641-144.14-7.813-2.438-32.672-11.813-53.766-29.906v300.156zM173.563 262.265c28.813-74.89 47.5-74.765 67.594-83.797-41.984-6.469-74.047-11.094-116.266-29.719-1.844-3.219 38.25 72.953 48.672 113.515zM352 32l-320 0.188c0.391-0.031 0.547-0.188 0.922-0.188 16.906 0 42.375 10.5 90.281 91.188 19.094 7.719 36.031 13.438 39.234 14.469 29.406 7.438 62.5 13.313 93.781 16.688 27.219-13.594 63.344-22.844 83.906-24.156 4.813-0.25 8.031 0.594 11.875 1v-99.188zM352 187.313c-11.844 7.344-27 12.5-44.563 12.5-12.125 0-25.313-0.688-39.344-2.188-13.469 6.5-46.281 16.36-73.594 95.11 8.547 51.813 6.359 86.781 6.359 86.781 3.391 26.469-11.672 36.422-25.813 36.422 0 0-0.139 0.063-0.172 0.063h81.125l96-96v-132.688z" horiz-adv-x="384" />
<glyph unicode="&#xf015;" d="M192 448h-128l-64-64v-128l256-256 192 192-256 256zM32 272v96l48 48h96l224-224-144-144-224 224zM224 320l-96-96 128-128 96 96-128 128zM176 224l48 48 80-80-48-48-80 80zM160 336c0 26.5-21.5 48-48 48s-48-21.5-48-48 21.5-48 48-48 48 21.5 48 48zM112 320c-8.828 0-16 7.172-16 16s7.172 16 16 16 16-7.172 16-16-7.172-16-16-16z" horiz-adv-x="448" />
<glyph unicode="&#xf016;" d="M416 384c-16 0-168 0-176 0s-16 8-16 16 0 0 0 16-16 32-32 32-144 0-160 0-32-16-32-32 0-352 0-352h448s0 272 0 288-16 32-32 32zM192 384h-160s0 7.5 0 16 8 16 16 16 120.5 0 128 0 16-7.5 16-16 0-16 0-16z" horiz-adv-x="448" />
<glyph unicode="&#xf017;" d="M416 224c-16 0-96 0-96 0 0 16-16 32-32 32s-48 0-64 0-32-16-32-32 0-160 0-160h256s0 112 0 128-16 32-32 32zM288 192h-64s0 8.5 0 16 7.5 16 16 16 24 0 32 0 16-7.5 16-16 0-16 0-16zM416 352c-16 0-168 0-176 0s-16 8.5-16 16 0 0 0 16-16 32-32 32-144 0-160 0-32-16-32-32 0-320 0-320h160s0 176 0 192 16 32 32 32 112 0 128 0 32-16 32-32h96s0 48 0 64-16 32-32 32zM192 352h-160s0 8 0 16 8 16 16 16 120 0 128 0 16-8.5 16-16 0-16 0-16z" horiz-adv-x="448" />
<glyph unicode="&#xf018;" d="M224 384c0 53-42.969 96-96 96s-96-43-96-96c0-53.031 42.969-96 96-96s96 42.969 96 96zM128 320c-35.328 0-64 28.672-64 64s28.672 64 64 64c35.313 0 64-28.672 64-64s-28.688-64-64-64zM192 288h-128c-35.328 0-64-28.672-64-64v-64c0-35.313 28.672-64 64-64v-128h128v128c35.313 0 64 28.688 64 64v64c0 35.328-28.688 64-64 64zM224 160c0-17.688-14.313-32-32-32v64h-32v-192h-64v192h-32v-64c-17.656 0-32 14.313-32 32v64c0 17.656 14.344 32 32 32h128c17.688 0 32-14.344 32-32v-64z" horiz-adv-x="256" />
<glyph unicode="&#xf019;" d="M352 480h-96c0-16-16.5-32-48.5-32s-47.5 16-47.5 32h-96c0-64-1-192-64-192 0 0-0.5-272-0.5-288s16-32 32-32 336 0 352 0 32 16 32 32 0 288 0 288c-63 0-64 128-64 192zM47.5 0c-8 0-15.5 5-15.5 16 0 16 0 240 0 240 59.5 32 64 96 64 192h32c0-48 16-95.5 80-96s80 48 80 96h32c0-93 16-138 32-169.5v-278.5s-296.5 0-304.5 0zM240 288l-16-16v-160l16-16h64l16 16v160l-16 16h-64zM288 128h-32v128h32v-128zM112 288l-16-16v-160l16-16h64l16 16v160l-16 16h-64zM160 128h-32v128h32v-128z" horiz-adv-x="448" />
<glyph unicode="&#xf01f;" d="M347.438 256c-14.25 55.11-63.875 96-123.438 96-59.547 0-109.188-40.89-123.453-96h-100.547v-64h100.547c14.266-55.125 63.906-96 123.453-96 59.563 0 109.188 40.875 123.438 96h100.563v64h-100.563zM224 160c-35.328 0-64 28.688-64 64 0 35.328 28.672 64 64 64 35.313 0 64-28.672 64-64 0-35.313-28.688-64-64-64z" horiz-adv-x="448" />
<glyph unicode="&#xf020;" d="M256 384c-35.5 0-64-28.5-64-64 0-23.5 13-44 32-55v-9c0-32-32-64-64-64-26.5 0-47.5-5.5-64-14.5v151.5c19 11 32 31.5 32 55 0 35.5-28.5 64-64 64s-64-28.5-64-64c0-23.5 13-44 32-55v-209.5c-19-11-32-31.5-32-55 0-35.5 28.5-64 64-64s64 28.5 64 64c0 17-6.5 32-17 43.5 9.5 11.5 24.5 20.5 49 20.5 64 0 128 64 128 128v9c19 11 32 31.5 32 55 0 35.5-28.5 64-64 64zM64 416c17.5 0 32-14.5 32-32s-14.5-32-32-32-32 14.5-32 32 14.5 32 32 32zM64 32c-17.5 0-32 14.5-32 32s14.5 32 32 32 32-14.5 32-32-14.5-32-32-32zM256 288c-17.5 0-32 14.5-32 32s14.5 32 32 32 32-14.5 32-32-14.5-32-32-32z" horiz-adv-x="320" />
<glyph unicode="&#xf023;" d="M320 256c-23.813 0-44.313-13.156-55.313-32.453-2.875 0.203-5.688 0.453-8.688 0.453-65.531 0-127.719 49.922-150.406 111.719 13.641 11.734 22.406 28.921 22.406 48.281 0 35.328-28.672 64-64 64s-64-28.672-64-64c0-23.609 12.922-44.031 32-55.14v-209.735c-19.078-11.094-32-31.5-32-55.125 0-35.313 28.672-64 64-64s64 28.688 64 64c0 23.625-12.922 44.031-32 55.125v115.141c42.078-44.516 100.188-74.266 160-74.266 3.188 0 5.813 0.219 8.688 0.313 11.063-19.219 31.563-32.313 55.313-32.313 35.313 0 64 28.688 64 64 0 35.328-28.688 64-64 64zM64 32c-17.656 0-32 14.313-32 32 0 17.656 14.344 32 32 32 17.703 0 32-14.344 32-32 0-17.688-14.297-32-32-32zM64 352c-17.656 0-32 14.297-32 32s14.344 32 32 32c17.703 0 32-14.297 32-32s-14.297-32-32-32zM320 160c-17.656 0-32 14.313-32 32 0 17.703 14.344 32 32 32 17.688 0 32-14.297 32-32 0-17.688-14.313-32-32-32z" horiz-adv-x="384" />
<glyph unicode="&#xf024;" d="M160 320l-96-96 96-96v64h192v-64l96 96-96 96v-64h-192v64zM256 480l-256-160v-352l256 128 256-128v352l-256 160zM480 32l-192 96v32h-64v-32l-192-96v256l192 128v-128h64v128l192-128v-256z" />
<glyph unicode="&#xf026;" d="M224 448c-123.719 0-224-100.281-224-224s100.281-224 224-224c123.719 0 224 100.281 224 224s-100.281 224-224 224zM224 64c-88.391 0-160 71.625-160 160 0 88.39 71.609 160 160 160 88.375 0 160-71.61 160-160 0-88.375-71.625-160-160-160zM192 96h64v64h-64v-64zM192 192h64v160h-64v-160z" horiz-adv-x="448" />
<glyph unicode="&#xf027;" d="M319.563 96.375c-26.688-20.063-59.563-32.375-95.563-32.375-88.391 0-160 71.625-160 160 0 22.781 4.891 44.39 13.5 64h-45.5v49.735c-19.844-33.454-32-72.032-32-113.735 0-123.719 100.281-224 224-224 53.688 0 102.25 19.656 140.875 51.125l19.125-19.125v96h-96l31.563-31.625zM192 96h64v64h-64v-64zM256 352h-64v-160h64v160zM448 224c0 123.719-100.281 224-224 224-53.703 0-102.266-19.656-140.828-51.172l-19.172 19.172v-96h96l-31.578 31.578c26.719 20.078 59.578 32.422 95.578 32.422 88.375 0 160-71.61 160-160 0-22.781-4.875-44.375-13.5-64h45.5v-49.75c19.844 33.469 32 72 32 113.75z" horiz-adv-x="448" />
<glyph unicode="&#xf028;" d="M352 321.985l-48-48 80-81.985 128 128-48 48-79.375-79.39-32.625 33.375zM256 64c-88.391 0-160 71.625-160 160 0 88.39 71.609 160 160 160 44.188 0 84.188-17.922 113.125-46.875l45.281 45.25c-40.531 40.563-96.531 65.625-158.406 65.625-123.719 0-224-100.281-224-224s100.281-224 224-224c123.719 0 224 100.281 224 224l-100.125-100.125c4.469 5.5-37.5-59.875-123.875-59.875zM288 352h-64v-160h64v160zM224 96h64v64h-64v-64z" />
<glyph unicode="&#xf02a;" d="M448 288l-156.75 20.39-67.25 139.61-67.266-139.61-156.734-20.39 115.234-104.438-29.734-151.531 138.5 74.406 138.531-74.406-29.781 151.531 115.25 104.438z" horiz-adv-x="448" />
<glyph unicode="&#xf02b;" d="M384 416h-320c-31 0-64-32-64-64v-192c0-64 64-64 64-64h32v-128l128 128c0 0 129 0 160 0s64 34 64 64v192c0 31-32 64-64 64z" horiz-adv-x="448" />
<glyph unicode="&#xf02c;" d="M224 96h64v64h-64v-64zM256 352c-48 0-96-48-96-96h64c0 16 16 32 32 32s32-16 32-32c0-32-64-32-64-64h64c32 11 64 32 64 80s-48 80-96 80zM256 480c-141.5 0-256-114.5-256-256s114.5-256 256-256 256 114.5 256 256-114.5 256-256 256zM256 32c-106 0-192 86-192 192s86 192 192 192 192-86 192-192-86-192-192-192z" />
<glyph unicode="&#xf02d;" d="M502.927 79.877l-219.143 383.5c-5.697 9.971-16.3 16.123-27.784 16.123s-22.087-6.153-27.784-16.123l-219.143-383.5c-5.66-9.904-5.619-22.072 0.107-31.938s16.27-15.938 27.677-15.938h438.286c11.407 0 21.952 6.072 27.677 15.938s5.767 22.034 0.107 31.938zM288 96h-64v64h64v-64zM288 192h-64v128h64v-128z" />
<glyph unicode="&#xf02e;" d="M480 64l-124.563 124.563c17.781 29.031 28.563 62.859 28.563 99.438 0 106.015-86 192-192 192-106.016 0-192-85.985-192-192 0-106 85.984-192 192-192 36.578 0 70.406 10.781 99.438 28.5l124.563-124.5c8.75-8.75 23.25-8.688 32 0l32 32c8.75 8.75 8.75 23.25 0 32zM192 160c-70.688 0-128 57.313-128 128s57.313 128 128 128 128-57.313 128-128-57.313-128-128-128z" horiz-adv-x="487" />
<glyph unicode="&#xf02f;" d="M223.969 305c-44.703 0-80.969-36.265-80.969-81 0-44.688 36.266-81.031 80.969-81.031 44.719 0 80.719 36.344 80.719 81.031-0 44.735-36 81-80.719 81zM386.313 177.469l-14.594-35.156 29.469-57.875-36.094-36.094-59.218 27.969-35.156-14.438-17.844-54.625-2.281-7.25h-51.016l-22.078 61.656-35.156 14.5-57.952-29.344-36.078 36.063 27.938 59.25-14.484 35.125-61.767 20.156v50.984l61.703 22.109 14.485 35.094-25.953 51.234-3.422 6.719 36.031 36.031 59.297-27.922 35.109 14.516 17.828 54.594 2.297 7.234h51l22.094-61.735 35.063-14.515 58.031 29.406 36.063-36.031-27.938-59.203 14.438-35.173 61.875-20.125v-50.969l-61.688-22.187z" horiz-adv-x="448" />
<glyph unicode="&#xf030;" d="M153.419 284.63c7.934 8.153 7.934 21.365 0 29.519-10.261 10.558-15.321 24.209-15.352 38.062 0.031 13.885 5.091 27.519 15.352 38.093 7.934 8.168 7.934 21.382 0 29.535-3.967 4.092-9.136 6.137-14.353 6.137-5.185 0-10.402-2.014-14.369-6.106-18.133-18.649-27.317-43.216-27.285-67.659-0.031-24.396 9.153-48.964 27.285-67.581 7.934-8.153 20.788-8.153 28.722 0zM74.546 463.429c-4.061 4.155-9.34 6.232-14.65 6.232-5.279 0-10.59-2.077-14.618-6.232-29.878-30.674-44.903-71.001-44.871-111.218-0.031-40.171 14.993-80.575 44.84-111.219 8.090-8.309 21.178-8.309 29.269 0 8.059 8.293 8.059 21.757 0 30.034-21.85 22.49-32.72 51.728-32.72 81.184s10.87 58.724 32.72 81.184c8.059 8.325 8.059 21.788 0.031 30.035zM256.515 300.077c28.675 0 51.978 23.287 51.978 51.978s-23.303 51.978-51.978 51.978c-28.69 0-51.978-23.287-51.978-51.978s23.287-51.978 51.978-51.978zM466.769 463.116c-8.091 8.309-21.178 8.309-29.238 0-8.091-8.293-8.091-21.756 0-30.034 21.834-22.459 32.704-51.728 32.704-81.184 0-29.425-10.902-58.693-32.736-81.153-8.058-8.309-8.058-21.787 0.031-30.034 4.029-4.155 9.308-6.232 14.618-6.232 5.279 0 10.589 2.077 14.618 6.232 29.863 30.644 44.887 71.048 44.825 111.219 0.065 40.139-14.96 80.543-44.822 111.186zM256.64 258.563v0c-13.244-0.031-26.52 3.233-38.546 9.715l-100.567-268.073h47.605l27.41 31.986h127.946l26.988-31.986h47.636l-100.55 268.010c-11.87-6.388-24.865-9.652-37.921-9.652zM256.328 243.242l32.174-115.092h-63.972l31.799 115.091zM192.543 64.178l31.987 31.986h63.972l31.987-31.986h-127.946zM358.597 419.479c-7.934-8.153-7.934-21.365 0-29.518 10.245-10.558 15.305-24.256 15.337-38.062-0.031-13.885-5.091-27.551-15.337-38.094-7.934-8.168-7.934-21.382 0-29.534 3.935-4.092 9.121-6.107 14.368-6.107 5.154 0 10.37 2.014 14.337 6.107 18.149 18.617 27.332 43.216 27.27 67.627 0.063 24.396-9.091 48.964-27.27 67.581-7.902 8.153-20.772 8.153-28.706 0z" />
<glyph unicode="&#xf031;" d="M143.274 247.492c8.422-8.406 40.858-42.64 40.858-42.64l17.984 18.546-28.186 29.124 54.107 57.467c0 0-24.421 23.811-13.734 14.327 10.219 37.952 0.906 80.295-27.921 110.122-28.577 29.593-69.185 39.296-105.668 29.109l61.827-63.858-16.265-62.654-60.53-16.719-61.795 63.874c-9.859-37.718-0.485-79.669 28.156-109.278 30.047-31.061 73.311-40.186 111.169-27.421zM349.408 185.385l-74.56-73.654 122.966-127.403c10.031-10.406 23.249-15.594 36.436-15.594 13.125 0 26.312 5.188 36.406 15.594 20.125 20.812 20.125 54.498 0 75.31l-121.247 125.747zM511.841 399.081l-78.31 80.919-230.837-238.649 28.186-29.124-138.167-142.808-31.577-16.875-44.608-72.779 11.36-11.781 70.419 46.123 16.328 32.656 138.168 142.777 28.202-29.124 230.837 238.664z" />
<glyph unicode="&#xf032;" d="M320 96h-128v288l-128 64h256v-96h32v128h-352v-416l192-96v96h160v160h-32v-128zM512 288l-128 96v-64h-128v-64h128v-64l128 96z" />
<glyph unicode="&#xf033;" d="M358.368 417.972c-35.963-20.843-74.021-48.065-109.218-83.277-22.5-22.516-40.606-44.39-55.195-64.889l-89.186-16.481-104.746-104.824 93.409-2.908 65.781 65.781c-23.22-48.112-25.268-80.010-25.268-80.010l29.427-29.396c0 0 32.913 3.127 81.369 26.582l-67.188-67.111 2.94-93.441 104.793 104.76 16.543 89.626c20.702 14.51 42.593 32.523 64.858 54.772 35.212 35.227 62.418 73.271 83.278 109.233-22.985 4.675-44.063 14.244-60.699 30.834-16.637 16.683-26.269 37.762-30.897 60.746zM393.080 436.579c2.502-22.5 9.976-40.637 22.39-52.99 12.385-12.493 30.49-19.951 53.069-22.422 32.992 66.672 43.437 118.834 43.437 118.834s-52.161-10.429-118.896-43.421z" />
<glyph unicode="&#xf034;" d="M64 160c-35.328 0-64-28.688-64-64s28.672-64 64-64 64 28.688 64 64-28.672 64-64 64zM64 288c0 0-32-1-32-32s32-32 32-32c70.688 0 128-57.313 128-128 0 0 0-32 32-32s32 32 32 32c0 106-85.984 192-192 192zM64 416c0 0-32 0-32-32s32-32 32-32c141.375 0 256-114.625 256-256 0 0 0-32 32-32s32 32 32 32c0 176.703-143.25 320-320 320z" horiz-adv-x="384" />
<glyph unicode="&#xf035;" d="M352 32h-320v288h320v-96h32v160c0 17.5-14.5 32-32 32h-96c0 35.5-28.5 64-64 64s-64-28.5-64-64h-96c-17.5 0-32-14.5-32-32v-352c0-17.5 14.5-32 32-32h320c17.5 0 32 14.5 32 32v64h-32v-64zM96 384c14.5 0 14.5 0 32 0s32 14.5 32 32 14.5 32 32 32 32-14.5 32-32 16-32 32-32 16.5 0 32 0 32-14.5 32-32h-256c0 19.5 14 32 32 32zM64 128h64v32h-64v-32zM288 192v64l-128-96 128-96v64h160v64h-160zM64 64h96v32h-96v-32zM224 288h-160v-32h160v32zM128 224h-64v-32h64v32z" horiz-adv-x="448" />
<glyph unicode="&#xf036;" d="M320 192v64h128v64h-128v64l-96-72v72l-128 64h256v-96h32v128h-352v-416l192-96v96h160v160h-32v-128h-128v168z" horiz-adv-x="448" />
<glyph unicode="&#xf037;" d="M384 288h-320c-35.328 0-64-28.672-64-64v-32c0-23.625 12.922-44.031 32-55.125v-104.875h128v-64h128v64h128v104.875c19.063 11.094 32 31.469 32 55.125v32c0 35.328-28.688 64-64 64zM128 64h-64v128h-32v32c0 17.656 14.344 32 32 32h40.859c-5.5-9.438-8.859-20.281-8.859-32v-64c0-23.625 12.922-44.031 32-55.125v-40.875zM288 128v64h-32v-192h-64v192h-32v-64c-17.656 0-32 14.313-32 32v64c0 17.656 14.344 32 32 32h128c17.688 0 32-14.344 32-32v-64c0-17.688-14.313-32-32-32zM416 192h-32v-128h-64v40.875c19.063 11.094 32 31.469 32 55.125v64c0 11.719-3.375 22.563-8.875 32h40.875c17.688 0 32-14.344 32-32v-32zM151.844 321.313c17.594-20.25 43.234-33.313 72.156-33.313 28.938 0 54.563 13.063 72.156 33.313 10.906-19.781 31.688-33.313 55.844-33.313 35.313 0 64 28.672 64 64s-28.688 64-64 64c-12.813 0-24.688-3.844-34.688-10.344-9.875 42.563-47.781 74.344-93.313 74.344s-83.453-31.781-93.313-74.344c-10.016 6.5-21.891 10.344-34.688 10.344-35.328 0-64-28.672-64-64s28.672-64 64-64c24.156 0 44.922 13.531 55.844 33.313zM352 384c17.688 0 32-14.297 32-32s-14.313-32-32-32c-17.656 0-32 14.297-32 32s14.344 32 32 32zM224 448c35.313 0 64-28.672 64-64s-28.688-64-64-64c-35.328 0-64 28.672-64 64s28.672 64 64 64zM96 320c-17.656 0-32 14.297-32 32s14.344 32 32 32c17.703 0 32-14.297 32-32s-14.297-32-32-32z" horiz-adv-x="448" />
<glyph unicode="&#xf038;" d="M288 480h-256c-17.656 0-32-14.344-32-32v-448c0-17.688 14.344-32 32-32h256c17.688 0 32 14.313 32 32v448c0 17.656-14.313 32-32 32zM144 448h32c8.813 0 16-7.172 16-16s-7.188-16-16-16h-32c-8.828 0-16 7.172-16 16s7.172 16 16 16zM176 0h-32c-8.828 0-16 7.188-16 16s7.172 16 16 16h32c8.813 0 16-7.188 16-16s-7.188-16-16-16zM288 64h-256v320h256v-320z" horiz-adv-x="320" />
<glyph unicode="&#xf039;" d="M192 288h64v96h64l-96 96-96-96h64v-96zM288 352v-32h112l-64-64h-224l-64 64h112v32h-160v-32l80-80-80-80v-32h160v32h-112l64 64h224l64-64h-112v-32h160v32l-80 80 80 80v32h-160zM256 192h-64v-96h-64l96-96 96 96h-64v96z" horiz-adv-x="448" />
<glyph unicode="&#xf03a;" d="M320 384l-192-192-64 64-64-64 128-128 256 256-64 64z" horiz-adv-x="384" />
<glyph unicode="&#xf03b;" d="M0 384v-320h448v320h-448zM384 352l-160-132-160 132h320zM32 320l126.016-95.813-126.016-96.188v192zM64 96l127 103.125 33-25.125 32.938 25.063 127.063-103.063h-320zM416 128l-126.188 96.031 126.188 95.969v-192z" horiz-adv-x="448" />
<glyph unicode="&#xf03c;" d="M288 288h-160v-32h160v32zM192 352h-64v-32h64v32zM384 365.735v50.265h-70.406l-89.594 64-89.594-64h-70.406v-50.265l-64-45.735v-320h448v320l-64 45.735zM96 384h256v-122.406l-128-105.594-128 105.594v122.406zM32 256l126.016-95.813-126.016-96.188v192zM64 32l127 103.125 33-25.125 32.938 25.063 127.063-103.063h-320zM416 64l-126.188 96.031 126.188 95.969v-192z" horiz-adv-x="448" />
<glyph unicode="&#xf03d;" d="M160 384l-160-192h96v-128h128v128h96l-160 192z" horiz-adv-x="320" />
<glyph unicode="&#xf03e;" d="M320 224l-192 160v-96h-128v-128h128v-96l192 160z" horiz-adv-x="320" />
<glyph unicode="&#xf03f;" d="M224 256v128h-128v-128h-96l160-192 160 192h-96z" horiz-adv-x="320" />
<glyph unicode="&#xf040;" d="M192 288v96l-192-160 192-160v96h128v128h-128z" horiz-adv-x="320" />
<glyph unicode="&#xf041;" d="M98 128l32-160 32 160c-10-1-21.5-1.5-32-1.5s-22 0.5-32 1.5zM225 277.5c-16.5 8.5-31 29.5-31 42.5v32c0 11 6 19.5 11.5 26 7.5 6.5 12 14.5 12 22.5 0 26.5-30.5 47.5-87.5 47.5s-87.5-21-87.5-47.5c0-8 4.5-16 12-22.5 5.5-6.5 11.5-15 11.5-26v-32c0-13-14.5-34-31-42.5-19-9.5-35-27-35-44 0-37 50.5-74 130-74s130 36.5 130 74c0 16.5-15.5 34-35 44z" horiz-adv-x="260" />
<glyph unicode="&#xf042;" d="M224 0h160v160h-160v-160zM32 0h160v160h-160v-160zM223.875 291.906c15.734 1.75 33.438 3.703 43.688 4.859 41.938 4.672 79.688 42.438 84.344 84.36 4.656 41.875-25.5 72.063-67.344 67.36-32.718-3.657-62.64-27.485-76.562-57.672-13.922 30.188-43.844 54.015-76.547 57.703-41.859 4.672-72.063-25.515-67.359-67.39 4.672-41.922 42.438-79.656 84.328-84.36 10.266-1.156 27.969-3.14 43.703-4.859-0.25-2.109-0.125-3.906-0.125-3.906h32c0 0 0.125 1.797-0.125 3.906zM277.688 409.656c22.625 2.531 39-13.781 36.438-36.438-2.5-22.656-22.938-43.078-45.563-45.609-22.688-2.516-39 13.797-36.469 36.453s22.969 43.078 45.594 45.594zM147.453 327.61c-22.625 2.531-43.031 22.953-45.563 45.609s13.797 38.969 36.406 36.438c22.656-2.516 43.078-22.938 45.611-45.594 2.53-22.656-13.798-38.969-36.454-36.453zM224 288v-96h192v96h-192zM0 192h192v96h-192v-96z" horiz-adv-x="448" />
<glyph unicode="&#xf043;" d="M352 352h-96v-320h96v320zM480 256h-96v-224h96v224zM32 0v64h32v32h-32v64h32v32h-32v64h32v32h-32v64h32v32h-32v64h32v32h-64v-512h512v32h-480zM224 192h-96v-160h96v160z" />
<glyph unicode="&#xf044;" d="M0 224.063l191.875-191.875v383.75l-191.875-191.875z" horiz-adv-x="192" />
<glyph unicode="&#xf045;" d="M64 128h64v32h-64v-32zM160 128h64v32h-64v-32zM192 224h-128v-32h128v32zM128 256h32l64 64h-32l-64-64zM224 192h96v32h-96v-32zM480 384c-16 0-432 0-448 0s-32-16-32-32 0-240 0-256 16-32 32-32 432 0 448 0 32 16 32 32 0 240 0 256-16 32-32 32zM480 256v-144s0-16-16-16h-416c-16 0-16 16-16 16v144h32l64 64h-96v16s0 16 16 16h416c16 0 16-16 16-16v-16h-192l-64-64h256z" />
<glyph unicode="&#xf046;" d="M192 192h128l32 32-32 32h-64v96l-32 32-32-32v-160zM224 448c-123.719 0-224-100.281-224-224s100.281-224 224-224c123.719 0 224 100.281 224 224s-100.281 224-224 224zM224 64c-88.125 0-160 71.875-160 160 0 87.969 72.094 159.75 160 160 87.906-0.25 160-72.031 160-160 0-88.125-71.875-160-160-160z" horiz-adv-x="448" />
<glyph unicode="&#xf047;" d="M384 416h-256l-128-128 256-256 256 256-128 128zM64 288l96 96h192l96-96-192-192-192 192zM352 352h-96v-224l160 160-64 64z" />
<glyph unicode="&#xf048;" d="M224 384c71 0 128-57.5 128-128 0-34.5-14-66-36-89l-8-46.5c45.5 28 76 78 76 135.5 0 88.5-71.5 160-160 160s-160-71.5-160-160c0-57.5 30.5-107.5 76-135.5l-8 46.5c-22.5 23-36 54.5-36 89 0 71 57 128 128 128zM192 224c-18 0-32-14.5-32-32v-64c0-18 15-32 32-32v-128h64v128c17 0 32 14 32 32v64c0 17.5-14 32-32 32s-32 0-32 0-14 0-32 0zM288 288c0 35.5-28.5 64-64 64s-64-28.5-64-64 28.5-64 64-64 64 28.5 64 64zM224 480c-123.5 0-224-100.5-224-224 0-98.5 64-181.5 152.5-211.5l-6 36c-67.5 30-114.5 97-114.5 175.5 0 106 86 192 192 192s192-86 192-192c0-78.5-47-145.5-114.5-175.5l-6-36c88.5 30 152.5 112.5 152.5 211.5 0 123.5-100.5 224-224 224z" horiz-adv-x="448" />
<glyph unicode="&#xf049;" d="M320.45 448.050c-70.7 0-128-57.3-128-128 0-9.8 1.1-19.3 3.2-28.45l-195.65-195.6v-32l32-32h64l32 32v32h32v32h32v32h64l35.4 35.4c9.35-2.15 19.050-3.3 29.050-3.3 70.7 0 128 57.3 128 128s-57.35 127.95-128 127.95zM192 224l-160-160v32l160 160v-32zM352 320c-17.65 0-32 14.35-32 32s14.35 32 32 32 32-14.35 32-32c0-17.65-14.35-32-32-32z" horiz-adv-x="448" />
<glyph unicode="&#xf04a;" d="M384 448c0 16-16 32-32 32s-304 0-320 0-32-16-32-32 0-384 0-384 0 16 0 0 16-32 32-32 64 0 64 0v-64l64 64v64h-64v-32s-39.5 0-48 0-16 7.5-16 16 0 48 0 48h128v32h-64v288h256v-288h-64v-32h64s0-40 0-48-7.5-16-16-16-48 0-48 0v-32s48 0 64 0 32 16 32 32 0 368 0 384zM248 288h72l-96 128-96-128h72l-72-96h64v-224h64v224h64l-72 96z" horiz-adv-x="384" />
<glyph unicode="&#xf04c;" d="M160 288h-32v-32h32v32zM96 448h128v32s-176 0-192 0-32-16-32-32 0-368 0-384 16-32 32-32 64 0 64 0v-64l48 48 48-48v64s143 0 160 0 32 16 32 32 0 96 0 96h-288v288zM352 128s0-39.5 0-48-7-16-16-16-144 0-144 0v32h-96v-32s-40 0-48 0-16 8-16 16 0 48 0 48h320zM160 352h-32v-32h32v32zM128 192h32v32h-32v-32zM480 480c-16 0-144 0-160 0s-32-16-32-32 0-176 0-192 16-32 32-32 32 0 32 0v-32l16 16 16-16v32s80 0 96 0 32 16 32 32 0 176 0 192-16 32-32 32zM352 256s-7.5 0-16 0-16 7.5-16 16 0 16 0 16h32v-32zM480 272c0-8-7.5-16-16-16s-80 0-80 0v32h96s0-8 0-16zM480 320h-128v128h112s16 0 16-16 0-112 0-112zM160 416h-32v-32h32v32z" />
<glyph unicode="&#xf04d;" d="M224 352h-64v-64h-64v-64h64v-64h64v64h64v64h-64v64zM96 32h192v64h-192v-64zM320 480h-256v-32h240l112-112v-304h32v320l-128 128zM0 416v-448h384v352l-96 96h-288zM352 0h-320v384h240l80-80v-304z" horiz-adv-x="448" />
<glyph unicode="&#xf04e;" d="M256 416c-96 0-208-64-256-192 48-96 144-160 256-160s208 64 256 160c-48 128-160 192-256 192zM256 96c-96 0-176 64-192 128 16 64 96 128 192 128s176-64 192-128c-16-64-96-128-192-128zM256 320c-10 0-19-2-28-4.5 16.5-7.5 28-24 28-43.5 0-26.5-21.5-48-48-48-19.5 0-36 11.5-43.5 28-2.5-9-4.5-18-4.5-28 0-53 43-96 96-96s96 43 96 96-43 96-96 96z" />
<glyph unicode="&#xf04f;" d="M128 224c0 32 0 96 0 96s-80 0-96 0-32-16-32-32 0-144 0-160 16-32 32-32 32 0 32 0v-96l97 96s81 0 96 0 31 16 31 32 0 32 0 32-64 0-96 0-64 32-64 64zM416 416c-16 0-208 0-224 0s-32-16-32-32 0-144 0-160 16-32 32-32 95 0 95 0l97-96v96s16 0 32 0 32 16 32 32 0 144 0 160-16 32-32 32z" horiz-adv-x="448" />
<glyph unicode="&#xf051;" d="M192 400l-192-144 192-144v96c55.5 0 164.5-30.5 192-140 0 145.5-98 225.5-192 236v96z" horiz-adv-x="384" />
<glyph unicode="&#xf052;" d="M-0.044 224c0 70.75 57.25 128 128 128 70.719 0 128-57.25 128-128s-57.281-128-128-128c-70.749 0-128 57.25-128 128z" horiz-adv-x="256" />
<glyph unicode="&#xf053;" d="M256 96h-256v256h256v-256z" horiz-adv-x="256" />
<glyph unicode="&#xf056;" d="M256 288c-35.346 0-64-28.654-64-64s28.654-64 64-64c2.856 0 5.668 0.19 8.426 0.553-23.172 3.529-40.925 23.539-40.925 47.697 0 26.648 21.602 48.25 48.25 48.25 24.157 0 44.168-17.754 47.697-40.925 0.363 2.757 0.553 5.57 0.553 8.426 0 35.346-28.654 64-64 64zM448 352h-64l-64 64h-128l-64.001-64h-63.999c-17.674 0-32-14.326-32-32v-224c0-17.673 14.326-32 32-32h384c17.673 0 32 14.327 32 32v224c0 17.674-14.327 32-32 32zM208 384h96l32-32h-160l32 32zM80.072 96c-8.876 0-16.072 7.195-16.072 16.072v143.928h32v32h-32v15.929c0 8.876 7.195 16.072 16.072 16.072h91.263c-1.99-1.759-3.94-3.587-5.844-5.49-49.987-49.988-49.987-131.032 0-181.019l37.49-37.49h-122.909zM256 128c-53.019 0-96 42.981-96 96s42.981 96 96 96 96-42.981 96-96-42.981-96-96-96zM416 240l-75.337 80h75.337v-80z" />
<glyph unicode="&#xf057;" d="M288 384c-17.673 0-32-14.327-32-32s14.327-32 32-32 32 14.327 32 32-14.327 32-32 32zM448 288l-64-64v32c0 15.313-10.757 28.105-25.125 31.251 15.604 17.072 25.125 39.797 25.125 64.748 0 53.020-42.981 96.001-96 96.001-50.561 0-91.993-39.089-95.725-88.697-17.017 15.35-39.554 24.697-64.275 24.697-53.019 0-96-42.981-96-96.001 0-53.019 42.981-95.999 96-95.999h-32v-64h32v-64c0-17.673 14.327-32 32-32h192c17.673 0 32 14.327 32 32v32l64-64h32v256h-32zM128 320c-17.674 0-32-14.327-32-32s14.326-32 32-32v-32c-35.346 0-64 28.654-64 64s28.654 64 64 64 64-28.654 64-64h-32c0 17.673-14.327 32-32 32zM288 128h-64v64h64v-64zM352 182.606c-16.763 16.774-35.138 35.159-36.687 36.707-2.895 2.896-6.895 4.687-11.313 4.687h-96c-8.837 0-16-7.163-16-16v-96c0-4.164 1.591-7.957 4.198-10.803 0.265-0.29 19.561-19.582 37.204-37.197h-57.403c-8.837 0-16 7.163-16 16v160c0 8.837 7.163 16 16 16h160c8.837 0 16-7.163 16-16v-57.394zM288 288c-35.346 0-64 28.654-64 64s28.654 64 64 64 64-28.654 64-64c0-35.346-28.654-64-64-64zM448 128l-32 32 0.041 64.042 31.959 31.959v-128.001z" />
<glyph unicode="&#xf058;" d="M352 448l-64-64 96-96 64 64-96 96zM0 96l0.344-96.281 95.656 0.281 256 256-96 96-256-256zM96 32h-64v64h32v-32h32v-32z" horiz-adv-x="448" />
<glyph unicode="&#xf059;" d="M224 288c17.5 0 32 14.5 32 32s-14.5 32-32 32-32-14.5-32-32 14.5-32 32-32zM224 448c-123.5 0-224-100.5-224-224s100.5-224 224-224 224 100.5 224 224-100.5 224-224 224zM224 64c-88.5 0-160 71.5-160 160s71.5 160 160 160 160-71.5 160-160-71.5-160-160-160zM256 224c0 16-16 32-32 32s-16 0-32 0-32-16-32-32h32s0-80 0-96 16-32 32-32 16 0 32 0 32 16 32 32h-32s0 80 0 96z" horiz-adv-x="448" />
<glyph unicode="&#xf05a;" d="M0.031 415.875l191.875-191.875-191.875-191.875v383.75z" horiz-adv-x="192" />
<glyph unicode="&#xf05b;" d="M0 288l191.875-191.875 191.875 191.875h-383.75z" horiz-adv-x="384" />
<glyph unicode="&#xf05c;" d="M384 352h-69c24-16 46.5-44.5 53.5-64h15c32.5 0 64-32 64-64s-32.5-64-64-64h-96c-31.5 0-64 32-64 64 0 11.5 3.5 22.5 9 32h-68.5c-2.5-10.5-4-21-4-32 0-64 63.5-128 127.5-128s32.5 0 96.5 0 128 64 128 128-64 128-128 128zM143.5 160h-15c-32.5 0-64 32-64 64s32.5 64 64 64h96c31.5 0 64-32 64-64 0-11.5-3.5-22.5-9-32h68.5c2.5 10.5 4 21 4 32 0 64-63.5 128-127.5 128s-32.5 0-96.5 0-128-64-128-128 64-128 128-128h69c-24 16-46.5 44.5-53.5 64z" />
<glyph unicode="&#xf05d;" d="M192 256v128h-64v-128h-128v-64h128v-128h64v128h128v64h-128z" horiz-adv-x="320" />
<glyph unicode="&#xf05e;" d="M0 384v-64h384v64h-384zM0 192h384v64h-384v-64zM0 64h384v64h-384v-64z" horiz-adv-x="384" />
<glyph unicode="&#xf05f;" d="M304 384l-48-48 112-112-112-112 48-48 144 160-144 160zM144 384l-144-160 144-160 48 48-112 112 112 112-48 48z" horiz-adv-x="448" />
<glyph unicode="&#xf060;" d="M160 480c-88.5 0-160-71.5-160-160s80-208 160-352c80 144 160 263.5 160 352s-71.5 160-160 160zM160 256c-35.5 0-64 28.5-64 64s28.5 64 64 64 64-28.5 64-64-28.5-64-64-64z" horiz-adv-x="320" />
<glyph unicode="&#xf061;" d="M0 192h64v64h-64v-64zM0 320h64v64h-64v-64zM0 64h64v64h-64v-64zM128 192h256v64h-256v-64zM128 320h256v64h-256v-64zM128 64h256v64h-256v-64z" horiz-adv-x="384" />
<glyph unicode="&#xf062;" d="M160 192h224v64h-224v-64zM160 64h224v64h-224v-64zM160 384v-64h224v64h-224zM39.5 256h39v128h-18l-42.5-11.5v-25l21.5 1v-92.5zM94.5 153c0 18-6 39-48 39-16.5 0-32-3-41.5-8l0.5-33c10.5 5 21 7.5 33.5 7.5s16-5.5 16-14c0-13-15-29-55-56v-25h96v33.5l-45.5-1c24.5 15 43.5 33 43.5 56.5l0.5 0.5z" horiz-adv-x="384" />
<glyph unicode="&#xf063;" d="M0 224v-128h128v128h-64c0 0 0 64 64 64v64c0 0-128 0-128-128zM320 288v64c0 0-128 0-128-128v-128h128v128h-64c0 0 0 64 64 64z" horiz-adv-x="320" />
<glyph unicode="&#xf064;" d="M0 128h64v32h-32v128h32v32h-64v-192zM192 384v-320h256v320h-256zM384 128h-128v192h128v-192zM96 96h64v32h-32v192h32v32h-64v-256z" horiz-adv-x="448" />
<glyph unicode="&#xf065;" d="M0 416v-384h384v384h-384zM32 64v320h320l-320-320z" horiz-adv-x="384" />
<glyph unicode="&#xf066;" d="M64 96h319.938v256h-319.938v-256zM127.969 288h192v-128h-192v128zM32 383.969h95.969v32h-127.969v-127.969h32v95.969zM32 160h-32v-127.969h127.969v31.969h-95.969v96zM319.969 415.969v-32h95.969v-95.969h32v127.969h-127.969zM415.938 64h-95.969v-31.969h127.969v127.969h-32v-96z" horiz-adv-x="448" />
<glyph unicode="&#xf067;" d="M63.969 384.031h-63.969v-32h95.969v95.969h-32v-63.969zM0 63.969h63.969v-63.969h32v95.969h-95.969v-32zM384.031 384.031v63.969h-32v-95.969h95.969v32h-63.969zM352.031 0h32v63.969h63.969v32h-95.969v-95.969zM96.031 128h255.969v192h-255.969v-192zM160 256h128v-64h-128v64z" horiz-adv-x="448" />
<glyph unicode="&#xf068;" d="M352 224h-32v-64h32v64zM288 224h-32v-64h32v64zM352 320h-32v-64h32v64zM416 224h-32v-64h32v64zM288 128h-32v-64h32v64zM384 480h-32v-64h32v64zM128 480h-32v-64h32v64zM416 320h-32v-64h32v64zM288 320h-32v-64h32v64zM160 128h-32v-64h32v64zM96 224h-32v-64h32v64zM160 224h-32v-64h32v64zM416 448v-64h-96v64h-160v-64h-96v64h-64v-448h480v448h-64zM448 32h-416v320h416v-320zM96 128h-32v-64h32v64zM224 320h-32v-64h32v64zM224 128h-32v-64h32v64zM160 320h-32v-64h32v64zM224 224h-32v-64h32v64zM352 128h-32v-64h32v64z" />
<glyph unicode="&#xf069;" d="M448 352c-15.5 0-96 0-96 0v64c0 35.5-79 64-176 64s-176-28.5-176-64v-384c0-35.5 79-64 176-64s176 28.5 176 64v64s80 0 96 0 32 15 32 32 0 175 0 192-14.5 32-32 32zM96 64h-32v256h32v-256zM192 32h-32v256h32v-256zM288 64h-32v256h32v-256zM176 384c-62 0-112 14.5-112 32s50 32 112 32 112-14.5 112-32-50-32-112-32zM416 160h-64v128h64v-128z" />
<glyph unicode="&#xf06a;" d="M352 256c-16 0-32 0-32 0s0 32 0 96-64 128-128 128-128-64-128-128 0-96 0-96-16 0-32 0-32-16-32-32 0-208 0-224 16-32 32-32 304 0 320 0 32 16 32 32 0 208 0 224-16 32-32 32zM256 192h-192v-32h192v-32h-192v-32h192v-32h-192v-32h192v-32h-224v224h224v-32zM256 256h-128s0 64 0 96 32 64 64 64 64-32 64-64 0-96 0-96z" horiz-adv-x="384" />
<glyph unicode="&#xf06b;" d="M256 320h-64v-64h-64v-64h64v-64h64v64h64v64h-64v64zM416 448c-16 0-368 0-384 0s-32-16-32-32 0-368 0-384 16-32 32-32 368 0 384 0 32 16 32 32 0 368 0 384-16 32-32 32zM384 80c0-8-8.5-16-16-16s-279 0-288 0-16 6-16 16c0 8 0 280 0 288s8 16 16 16 280.5 0 288 0 16-8 16-16 0-280 0-288z" horiz-adv-x="448" />
<glyph unicode="&#xf06c;" d="M416 448h-384c-16 0-32-16-32-32v-384c0-16 16-32 32-32h384c16 0 32 16 32 32v384c0 16-16 32-32 32zM384 80c0-8-8.5-16-16-16h-288c-9 0-16 6-16 16v288c0 8 8 16 16 16h288c7.5 0 16-8 16-16v-288zM128 192h192v64h-192v-64z" horiz-adv-x="448" />
<glyph unicode="&#xf06d;" d="M416 448h-384c-16 0-32-16-32-32v-384c0-16 16-32 32-32h384c16 0 32 16 32 32v384c0 16-16 32-32 32zM384 80c0-8-8.5-16-16-16h-288c-9 0-16 6-16 16v288c0 8 8 16 16 16h288c7.5 0 16-8 16-16v-288zM224 288c-35.5 0-64-28.5-64-64s28.5-64 64-64 64 28.5 64 64-28.5 64-64 64z" horiz-adv-x="448" />
<glyph unicode="&#xf06e;" d="M416 448h-384c-16 0-32-16-32-32v-384c0-16 16-32 32-32h384c16 0 32 16 32 32v384c0 16-16 32-32 32zM384 80c0-8-8.5-16-16-16h-288c-9 0-16 6-16 16v288c0 8 8 16 16 16h288c7.5 0 16-8 16-16v-288zM224 256h-96v-64h96v-64l128 96-128 96v-64z" horiz-adv-x="448" />
<glyph unicode="&#xf070;" d="M31.969 256h64v-64h32v191.969h-32v-95.969h-64v95.969h-31.969v-191.969h31.969v64zM319.938 192v64h-31.969v-64h31.969zM319.938 288v63.969h-31.969v-63.969h31.969zM223.969 288v63.969h64v32h-96v-191.969h32v64h64v32h-64zM0 64h319.938v64h-319.938v-64z" horiz-adv-x="320" />
<glyph unicode="&#xf071;" d="M192 224l-128 96v-64h-64v-64h64v-64l128 96z" horiz-adv-x="192" />
<glyph unicode="&#xf072;" d="M383.875 384h-383.75l191.875-191.875 191.875 191.875zM0 128v-64h384v64h-384z" horiz-adv-x="384" />
<glyph unicode="&#xf073;" d="M0.094 64h383.75l-191.844 191.875-191.906-191.875zM0 384v-64h384v64h-384z" horiz-adv-x="384" />
<glyph unicode="&#xf074;" d="M0 64h96v320h-96v-320zM352 288v96l-192-160 192-160v96h160v128h-160z" />
<glyph unicode="&#xf075;" d="M352 384h-352v-128h352l64 64-64 64zM224 288h-64v64h64v-64zM224 480h-64v-64h64v64zM160-32h64v256h-64v-256z" horiz-adv-x="416" />
<glyph unicode="&#xf076;" d="M380.344 221.89l-24.906 24.828c-3.219 3.264-8.469 3.297-11.688 0l-52.5-52.468-60.063-60.188-46.516 46.563c-3.266 3.281-8.516 3.281-11.75 0l-24.859-24.844c-3.266-3.281-3.266-8.531 0-11.781l77.219-77.281c3.281-3.281 8.594-3.281 11.781 0l143.25 143.391c3.313 3.234 3.313 8.484 0.031 11.781zM114.234 189.594l24.844 24.906c21.234 21.188 58.172 21.219 79.391-0.031l12.656-12.656 56.875 54.187v160h-288v-352h160l-45.766 46.063c-21.891 21.969-21.891 57.625 0 79.531zM96 384h160v-32h-160v32zM96 320h160v-32h-160v32zM64 224h-32v32h32v-32zM64 288h-32v32h32v-32zM64 352h-32v32h32v-32zM96 256h32v-32h-32v32z" horiz-adv-x="383" />
<glyph unicode="&#xf077;" d="M416 464c-65 0-62-65-352-64-35.328 0-64-57.313-64-128s28.672-128 64-128c11.391 0 21.594-0.25 32.094-0.438l31.906-143.563 96-16 32 48-22.563 101.563c121.25-18.125 133.438-53.563 182.563-53.563 53 0 96 86 96 192 0 106.015-43 192-96 192zM98.5 238.531c-19.594 0.734-41.094 1.125-63.781 1.313-1.719 9.859-2.719 20.704-2.719 32.156 0 44.188 14.344 96 32 96 19.516-0.063 37.5 0.219 54.5 0.703-13.672-23.484-22.5-57.859-22.5-96.703 0-11.656 1.031-22.719 2.5-33.469zM130.656 237.031c-1.594 11.125-2.656 22.781-2.656 34.969 0 39.75 9.219 74.75 23.453 98.11 77.578 4.156 125.953 14.234 159.516 25.094-14.156-33.438-22.969-76.031-22.969-123.203 0-20 1.938-39 4.75-57.156-36.078 9.344-86.344 17.859-162.094 22.187zM416 128c-6.063 0-11.844 2.531-17.406 6.063-7.625 33.656-41.719 209.172 58.719 247.094 13.75-26.406 22.687-65.25 22.687-109.156 0-79.5-28.688-144-64-144z" />
<glyph unicode="&#xf078;" d="M64 384l-64-64 96-96-96-96 64-64 160 160-160 160z" horiz-adv-x="224" />
<glyph unicode="&#xf07b;" d="M0 416v-384l96 64 96-64v384h-192zM158.125 317.625l-35.938-25.969 13.594-41.703c1.375-4.188-0.344-5.531-3.781-3.297l-36 26.047-36-26.015c-3.422-2.234-5.156-0.891-3.781 3.297l13.61 41.703-35.938 25.938c-3.235 2.563-2.5 4.61 1.953 4.61l44 0.063 13.563 41.547c1.406 4.406 3.781 4.406 5.188 0l13.594-41.547 43.969-0.063c4.468 0 5.186-2.047 1.968-4.61z" horiz-adv-x="192" />
<glyph unicode="&#xf07c;" d="M32 32h64v96h-64v-96zM96 416h-64v-160h64v160zM256 416h-64v-64h64v64zM0 160h128v64h-128v-64zM192 32h64v192h-64v-192zM160 256h128v64h-128v-64zM416 416h-64v-192h64v192zM320 192v-64h128v64h-128zM352 32h64v64h-64v-64z" horiz-adv-x="448" />
<glyph unicode="&#xf07d;" d="M208 247.75c-30.781 0-55.75-24.969-55.75-55.75s24.969-55.75 55.75-55.75 55.75 24.969 55.75 55.75c0 4.25-0.563 8.375-1.5 12.344 40.813 47.469 104 121.484 137.75 163.656 11.563 14.438-1.156 28.094-16 16-42.594-34.688-116.156-97.344-163.453-137.797-4.031 0.938-8.234 1.547-12.547 1.547zM223.938 352.063c0 8.828-7.172 16-16 16s-16-7.172-16-16 7.172-16 16-16 16 7.172 16 16zM319.938 224.063c0-8.828 7.188-16 16-16s16 7.172 16 16-7.188 16-16 16-16-7.172-16-16zM143.938 352.063c-8.828 0-16-7.172-16-16s7.172-16 16-16 16 7.172 16 16-7.172 16-16 16zM111.938 288.063c0 8.828-7.172 16-16 16s-16-7.172-16-16 7.172-16 16-16 16 7.172 16 16zM63.938 224.063c0-8.828 7.172-16 16-16s16 7.172 16 16-7.172 16-16 16-16-7.172-16-16zM287.938 336.063c0 8.828-7.188 16-16 16s-16-7.172-16-16 7.188-16 16-16 16 7.172 16 16zM396.438 311.656l-34.375-44.969c3.75-13.593 5.938-27.875 5.938-42.687 0-88.375-71.656-160-160-160s-160 71.625-160 160c0 88.344 71.656 160 160 160 32.938 0 63.5-9.985 88.938-27.047l39.625 30.313c-35.375 27.938-79.938 44.735-128.563 44.735-114.875 0-208-93.125-208-208s93.125-208 208-208 208 93.125 208 208c0 31.359-7.125 61-19.563 87.656z" horiz-adv-x="416" />
<glyph unicode="&#xf07e;" d="M224 448c-45.469 0-87.656-13.765-122.969-37.031l-37.031 37.031v-128h128l-44 44c22.719 12.344 48.344 20 76 20 88.375 0 160-71.61 160-160 0-88.375-71.625-160-160-160-88.391 0-160 71.625-160 160 0 22.781 4.891 44.39 13.5 64h-45.5v49.703c-19.844-33.453-32-72-32-113.703 0-123.719 100.281-224 224-224s224 100.281 224 224c0 123.719-100.281 224-224 224zM223.516 64.5l32.484 31.5v96h64l32 32-32 32h-64l-32 32-64-64 32-32v-96l31.516-31.5z" horiz-adv-x="448" />
<glyph unicode="&#xf07f;" d="M320 96h-256v255.047l64 0.953v64h-128v-384h384v160h-64v-96zM192 416l64-64-96-96 64-64 96 96 64-64v192h-192z" horiz-adv-x="384" />
<glyph unicode="&#xf080;" d="M64 288h-64v-128h64l128-96h32v320h-32l-128-96zM432 272l-32 32-48-48-48 48-31.5-31.75 47.5-48.25-48-48 32-32 48 48 48-48 32 32-48 48 48 48z" horiz-adv-x="448" />
<glyph unicode="&#xf081;" d="M320 320l-64 64-96-96-96 96-64-64 96-96-96-96 64-64 96 96 96-96 64 64-96 96 96 96z" horiz-adv-x="320" />
<glyph unicode="&#xf084;" d="M160 384c-88.391 0-160-71.61-160-160 0-88.375 71.609-160 160-160 88.375 0 160 71.625 160 160 0 88.39-71.625 160-160 160zM160 320c13.828 0 26.844-3.047 38.719-8.281l-126.438-126.438c-5.234 11.875-8.281 24.891-8.281 38.719 0 53 42.969 96 96 96zM160 128c-14.016 0-27.266 3.188-39.297 8.563l126.953 126.25c5.281-11.906 8.344-24.953 8.344-38.813 0-53.031-42.969-96-96-96z" horiz-adv-x="320" />
<glyph unicode="&#xf085;" d="M368 224.031l-86.406 83.172-70.391-99.203-35.203 220.797-99.781-204.766h-76.219v-64.031h115.203l28.797 57.594 28.797-172.781 115.203 163.187 51.188-48h108.813v64.031h-80z" horiz-adv-x="448" />
<glyph unicode="&#xf087;" d="M327.731 243.266c5.938-40.859-6.531-83.891-38.406-115.297-47.094-46.469-119.75-52.188-173.188-17.281l37.438 36.5-137.595 19.188 19.203-134.375 42.015 40.25c75.453-55.625 182.469-50.375 251.032 17.281 39.75 39.219 57.875 91.281 55.625 142.656l-56.125 11.078zM94.73 319.969c47.078 46.469 119.719 52.219 173.156 17.281l-37.5-36.485 137.594-19.203-19.188 134.438-41.969-40.344c-75.469 55.672-182.453 50.359-251.031-17.281-39.75-39.203-57.859-91.265-55.625-142.625l56.125-11.063c-5.938 40.875 6.563 83.86 38.438 115.281z" horiz-adv-x="384" />
<glyph unicode="&#xf088;" d="M38 268.5c16 4 114.5 29.5 114.5 29.5-0.5-3-1-9.5-1-9.5 0-35.5 24.5-64 64-64s64 29.5 64 64c0 5.5-4 11-9.5 16l24.5-1.5s3.5 1 15.5 4c-25.5-7-54 15.5-63 49.5s4 67.5 30 74.5c-12-3-15.5-4-15.5-4l-84-55c-17-4.5-27.5-23-23-40 1-4.5 3.5-8.5 6-11.5-3.5-6-6-13-7.5-20-13.5 0.5-25.5 9.5-29.5 23-4.5 17 5.5 34.5 22.5 39l-122.5-32.5c-17-4.5-27-21.5-22.5-38.5s20.5-27 36.5-23zM247.5 192h-64v-32l-160-160h64l96 64v-64h64v64l96-64h64l-160 160v32zM462 416c-9 34-35 55-61 48-34.5-9-49-14-93-25.5-25.5-7-39.5-40-30.5-74s37-57.5 62.5-51c43.5 11.5 58.5 16.5 93 25.5 25.5 7 38 42.5 29 77zM427 371c-8.5-2.5-21 8.5-25.5 25.5s-2 33 6.5 35 21-8.5 25.5-25.5 2-33-6.5-35z" horiz-adv-x="465" />
<glyph unicode="&#xf089;" d="M308.5 32c43.156 9.375 75.5 50 75.5 96 0 29.219-13.313 55.063-33.938 72.688 1.188 7.625 1.938 15.375 1.938 23.313 0 52.422-24.938 98.938-64 128l32 32v32l32 32-32 32-32-32h-32l-128-128-64-32v-64l32-32h64l32 64 48 48c27.75-16.703 48-45.219 48-80-53.031 0-96-42.969-96-96h-192v-32h96c9.563-7.125 21.031-11.063 32-16v-48h-64l-64-64h384l-64 64h-11.5zM256 128c0 17.688 14.313 32 32 32s32-14.313 32-32c0-17.656-14.313-32-32-32s-32 14.344-32 32z" horiz-adv-x="384" />
<glyph unicode="&#xf08a;" d="M96 448c-53.031 0-96-42.969-96-96s42.969-96 96-96c53.031 0 96 42.969 96 96s-42.969 96-96 96zM336 176l80 80h-224v-224l80 80 144-144 64 64-144 144z" horiz-adv-x="480" />
<glyph unicode="&#xf08b;" d="M256 384l-64-64-128 128-64-64 128-128-64-64 32-32 192 192-32 32zM320 192l64 64-32 32-192-192 32-32 64 64 128-128 64 64-128 128z" horiz-adv-x="448" />
<glyph unicode="&#xf08c;" d="M96.5 128l64-96h-128l-32.5 128 128.5 32-32-64zM320.5 192l32-64-64-96h128l32 128-128 32zM278.5 192h-108l22-51-32-109h128l-32 109 22 51zM320.5 288h-192l-64-32h320l-64 32zM288.5 416l-64-32-64 32-32-96h192l-32 96z" horiz-adv-x="448" />
<glyph unicode="&#xf08d;" d="M96 192l32-192h96v160h64v-160h96l32 192-160 160-160-160zM416 288v128h-64l0.156-64.156-96.156 96.156-256-256h64l192 192 192-192h64l-96 96z" />
<glyph unicode="&#xf08e;" d="M192 192l64 64 144-144 80 80v-224h-224l80 80-144 144zM96 256c-53.031 0-96 42.969-96 96s42.969 96 96 96c53.031 0 96-42.969 96-96s-42.969-96-96-96z" horiz-adv-x="480" />
<glyph unicode="&#xf08f;" d="M352 480h-192l-160-160v-192l160-160h192l160 160v192l-160 160zM448 160l-128-128h-128l-128 128v128l128 128h128l128-128v-128zM224 192h64v160h-64v-160zM224 96h64v64h-64v-64z" />
<glyph unicode="&#xf091;" d="M121.811 401.735c-26.437-28.391-19.141-73.735-19.141-73.735s26.984-32 80-32c53.016 0 80.016 32 80.016 32s7.188 44.735-18.688 73.156c16.188 9.016 25.719 22.047 21.781 30.906-4.469 9.985-24.188 10.875-44.125 1.984-7.406-3.297-13.719-7.484-18.625-11.938-6.219 1.125-12.813 1.891-20.36 1.891-7.030 0-13.28-0.672-19.172-1.625-4.828 4.375-11.031 8.438-18.266 11.672-19.938 8.859-39.688 7.969-44.125-1.985-3.874-8.671 5.142-21.343 20.704-30.327zM322.373 195.125c-4.125 0.875-8.063 1.375-11.875 1.75 0 1.063 0.188 2.063 0.188 3.156 0 16.797-2.375 32.827-6.219 48.063 8.219-0.703 18.688 1.188 29.281 5.889 19.938 8.891 32.5 24.188 28.063 34.109-4.438 9.985-24.188 10.875-44.125 1.985-9.313-4.156-16.906-9.735-22-15.453-3.875 9.125-8.25 17.89-13.406 25.859-15.094-12.578-43.656-31.359-83.531-35.531v-160.89c0 0-0.125-16-16.016-16-15.875 0-16 16-16 16v160.828c-39.906 4.172-68.484 22.985-83.546 35.531-4.938-7.656-9.188-16-12.969-24.672-5.141 5.313-12.313 10.422-20.984 14.297-19.938 8.859-39.688 7.969-44.125-1.985-4.453-9.953 8.125-25.219 28.063-34.109 9.922-4.423 19.766-6.406 27.734-6.048-3.828-15.202-6.234-31.172-6.234-47.906 0-1.094 0.188-2.125 0.219-3.25-3.359-0.375-6.844-0.875-10.39-1.625-25.985-5.375-45.891-18.813-44.422-29.906 1.469-11.156 23.75-15.75 49.797-10.344 3.391 0.688 6.719 1.563 9.891 2.531 4.578-20.404 11.906-39.342 22.047-55.654-6.016-3.031-12.266-7.5-18.016-13.313-15.938-15.938-22.406-35.313-14.438-43.281 7.969-7.969 27.328-1.5 43.266 14.406 4.672 4.688 8.422 9.625 11.328 14.5 21.766-21.312 49.032-34.062 78.782-34.062 30.172 0 57.891 13.125 79.766 34.969 2.938-5.156 6.875-10.406 11.813-15.344 15.906-15.938 35.313-22.406 43.281-14.438s1.5 27.313-14.438 43.25c-6.156 6.188-12.844 10.875-19.219 13.969 10.063 16.25 17.313 35.188 21.844 55.531 3.594-1.125 7.344-2.188 11.281-3.031 26.031-5.406 48.313-0.781 49.813 10.344 1.406 11.062-18.5 24.5-44.5 29.875z" horiz-adv-x="367" />
<glyph unicode="&#xf092;" d="M276.365 313.933h-120.587c-3.102 0-5.625-2.523-5.625-5.649v-58.944c0-3.126 2.523-5.636 5.625-5.636h47.054v-73.271c0 0-10.572-3.529-39.748-3.529-34.457 0-82.578 12.622-82.578 118.397 0 105.821 50.099 119.745 97.154 119.745 40.733 0 58.257-7.152 69.435-10.62 3.505-1.101 6.702 2.416 6.702 5.553l13.474 56.955c0 1.456-0.521 3.209-2.131 4.392-4.548 3.197-32.208 18.673-102.056 18.673-80.517 0-163.084-34.243-163.084-198.878 0-164.611 94.525-189.122 174.19-189.122 65.941 0 106.011 28.157 106.011 28.157 1.634 0.901 1.8 3.197 1.8 4.24v183.887c-0.024 3.103-2.558 5.649-5.636 5.649zM886.191 465.933h-67.847c-3.126 0-5.635-2.522-5.635-5.648v-131.197h-105.809v131.196c0 3.126-2.534 5.648-5.589 5.648h-67.919c-3.056 0-5.542-2.522-5.542-5.648v-355.236c0-3.149 2.51-5.66 5.542-5.66h67.919c3.101 0 5.589 2.534 5.589 5.66v151.918h105.809l-0.237-151.942c0-3.15 2.51-5.636 5.542-5.636h67.942c3.126 0 5.566 2.534 5.566 5.636l0.236 355.26c0.047 3.125-2.487 5.647-5.566 5.647zM357.474 457.882c-24.178 0-43.787-19.786-43.787-44.202 0-24.428 19.608-44.214 43.787-44.214s43.764 19.786 43.764 44.214c0 24.415-19.584 44.202-43.764 44.202zM396.43 343.937c0 3.102-2.51 5.672-5.565 5.672h-67.705c-3.174 0-5.873-3.197-5.873-6.335 0 0 0-197.327 0-234.933 0-6.868 4.286-8.952 9.851-8.952 0 0 28.844 0 60.98 0 6.656 0 8.407 3.268 8.407 9.094-0.047 12.599-0.047 61.904-0.047 71.471-0.048 9.094-0.048 163.983-0.048 163.983zM1148.986 349.076h-67.351c-3.079 0-5.542-2.546-5.542-5.672v-174.155c0 0-17.122-12.599-41.467-12.599-24.274 0-30.763 11.012-30.763 34.859 0 23.776 0 151.918 0 151.918 0 3.126-2.534 5.673-5.566 5.673h-68.322c-3.126 0-5.589-2.547-5.589-5.673 0 0 0-92.761 0-163.404s39.383-87.953 93.495-87.953c44.427 0 80.305 24.558 80.305 24.558s1.681-12.883 2.534-14.422c0.711-1.539 2.724-3.079 4.926-3.079h43.29c3.079 0 5.589 2.534 5.589 5.661l0.189 238.639c-0.141 3.103-2.652 5.649-5.73 5.649zM1333.466 357.081c-38.27 0-64.296-17.074-64.296-17.074v120.279c0 3.126-2.534 5.648-5.565 5.648h-68.132c-3.054 0-5.565-2.522-5.565-5.648l-0.189-355.26c0-3.15 2.534-5.636 5.612-5.636 0 0 47.387 0 47.435 0 2.108 0 3.695 1.089 4.902 2.984 1.185 1.918 2.865 16.387 2.865 16.387s27.778-26.382 80.517-26.382c61.903 0 97.379 31.402 97.379 140.953 0.001 109.41-56.693 123.749-94.963 123.749zM1306.896 156.887c-23.351 0.711-39.17 11.32-39.17 11.32v112.535c0 0 15.653 9.603 34.836 11.297 24.274 2.155 47.719-5.163 47.719-63.065-0.12-61.003-10.681-73.057-43.385-72.087zM592.563 158.166c-2.985 0-10.61-1.184-18.425-1.184-24.96 0-33.486 11.628-33.486 26.666 0 15.109 0 99.925 0 99.925h50.963c3.126 0 5.589 2.522 5.589 5.672v54.74c0.047 3.149-2.463 5.672-5.589 5.672h-50.963l-0.072 67.267c0 2.546-1.35 3.813-4.286 3.813h-69.364c-2.676 0-4.168-1.195-4.168-3.789v-69.517c0 0-34.788-8.395-37.133-9.094-2.32-0.663-4.026-2.842-4.026-5.411v-43.704c0-3.126 2.534-5.672 5.589-5.672h35.57c0 0 0-45.67 0-105.111 0-78.055 54.776-85.728 91.72-85.728 16.861 0 37.038 5.494 40.424 6.678 2.037 0.711 3.197 2.818 3.197 5.068l0.024 48.050c0 3.149-2.628 5.707-5.564 5.659z" horiz-adv-x="1428" />
<glyph unicode="&#xf094;" d="M0 0v448h288l96-96v-352h-384zM352 320l-96 96h-224v-384h320v288zM160 224h-96v128h96v-128zM128 320h-32v-64h32v64zM128 96h32v-32h-96v32h32v64h-32v32h64v-96zM256 256h32v-32h-96v32h32v64h-32v32h64v-96zM288 64h-96v128h96v-128zM256 160h-32v-64h32v64z" horiz-adv-x="384" />
<glyph unicode="&#xf096;" d="M192 0c-106.016 0-192 28.688-192 64 0 19.313 0 40.438 0 64 0 5.563 2.781 10.844 6.781 16 21.407-27.563 95.844-48 185.219-48s163.813 20.438 185.219 48c4-5.156 6.781-10.438 6.781-16 0-18.531 0-38.188 0-64 0-35.313-86-64-192-64zM192 128c-106.016 0-192 28.688-192 64 0 19.328 0 40.422 0 64 0 3.39 1.281 6.688 3 9.953v0c0.969 2.047 2.25 4.063 3.781 6.047 21.407-27.547 95.844-48 185.219-48s163.813 20.453 185.219 48c1.531-1.985 2.813-4 3.781-6.047v0c1.719-3.265 3-6.563 3-9.953 0-18.531 0-38.172 0-64 0-35.313-86-64-192-64zM192 256c-106.016 0-192 28.672-192 64 0 10.11 0 20.797 0 32 0 10.172 0 20.735 0 32 0 35.328 85.984 64 192 64 106 0 192-28.672 192-64 0-9.985 0-20.578 0-32 0-9.797 0-20.125 0-32 0-35.328-86-64-192-64zM192 416c-70.688 0-128-14.297-128-32s57.313-32 128-32 128 14.297 128 32-57.313 32-128 32z" horiz-adv-x="384" />
<glyph unicode="&#xf097;" d="M352 288h-320c-17.5 0-32-16-32-32v-64c0-16 16-32 32-32h320c16 0 32 16 32 32v64c0 16-16 32-32 32zM64 192h-32v64h32v-64zM128 192h-32v64h32v-64zM192 192h-32v64h32v-64zM256 192h-32v64h32v-64zM352 128h-320c-17.5 0-32-16-32-32v-64c0-16 16-32 32-32h320c16 0 32 16 32 32v64c0 16-16 32-32 32zM64 32h-32v64h32v-64zM128 32h-32v64h32v-64zM192 32h-32v64h32v-64zM256 32h-32v64h32v-64zM352 448h-320c-17.5 0-32-16-32-32v-64c0-16 16-32 32-32h320c16 0 32 16 32 32v64c0 16-16 32-32 32zM64 352h-32v64h32v-64zM128 352h-32v64h32v-64zM192 352h-32v64h32v-64zM256 352h-32v64h32v-64zM352 384h-32v32h32v-32z" horiz-adv-x="384" />
<glyph unicode="&#xf099;" d="M416 448h-384c-16 0-32-16-32-32v-384c0-16 16-32 32-32h384c16 0 32 16 32 32v384c0 16-16 32-32 32zM384 80c0-8-8.5-16-16-16h-288c-9 0-16 6-16 16v288c0 8 8 16 16 16h288c7.5 0 16-8 16-16v-288zM128 177v-49h49l143 143v49h-49l-143-143z" horiz-adv-x="448" />
<glyph unicode="&#xf09a;" d="M320 320c-32 0-224 0-256 0s-64-32-64-64 0-32 0-64 32-64 64-64 224 0 256 0 64 32 64 64 0 32 0 64-32 64-64 64zM128 192h-64v64h64v-64zM224 192h-64v64h64v-64zM320 192h-64v64h64v-64z" horiz-adv-x="384" />
<glyph unicode="&#xf09c;" d="M448 320v-64h-64v64l-96-96 96-96v64h96c0 0 32 0.188 32 32s0 96 0 96h-64zM112 336c-61.859 0-112-50.14-112-112 0-61.875 50.141-112 112-112s112 50.125 112 112c0 61.86-50.141 112-112 112zM48 224c0 35.328 28.672 64 64 64 9.375 0 18.203-2.11 26.234-5.765l-84.469-84.485c-3.656 8.063-5.766 16.875-5.766 26.25zM112 160c-9.375 0-18.203 2.125-26.234 5.75l84.469 84.484c3.656-8.031 5.766-16.859 5.766-26.234 0-35.313-28.672-64-64-64z" />
<glyph unicode="&#xf09d;" d="M256 448c-141.5 0-256-114.5-256-256 0 0 0-96 0-128s32-64 64-64 352 0 384 0 64 32 64 64 0 128 0 128c0 141.5-114.5 256-256 256zM304 64h-96c-9 0-16 7-16 16s7 16 16 16h96c9 0 16-7 16-16s-7-16-16-16zM448 128c0-16-16-32-32-32s-64 0-64 0c0 16-16 32-32 32s-112 0-128 0-32-16-32-32c0 0-48 0-64 0s-32 16-32 32 0 180 0 180c39 64.5 110 108 192 108s153-43.5 192-108c0 0 0-164 0-180zM384 320c-16 0-240 0-256 0s-32-16-32-32 0-48 0-64 16-32 32-32 240 0 256 0 32 16 32 32 0 48 0 64-16 32-32 32zM384 256l-32-32h-64l-32 32-32-32h-64l-32 32v32h32l32-32 32 32h64l32-32 32 32h32v-32z" />
<glyph unicode="&#xf09e;" d="M285.5 224c59 42.5 98.5 120 98.5 192 0 35.5-86 64-192 64s-192-28.5-192-64c0-72 40-149.5 98.5-192-59-42.5-98.5-120-98.5-192 0-35.5 86-64 192-64s192 28.5 192 64c0 72-40 149.5-98.5 192zM192 448c70.5 0 128-14.5 128-32s-57.5-32-128-32-128 14.5-128 32 57.5 32 128 32zM160 95c-77-3.5-119-20-126.5-41 8 57 37.5 94.5 70.5 125.5 36.5 34 56 30 56 51.5v-136.5zM107.5 271c-35 27.5-61 65-71 107.5 35-16 91.5-26.5 155.5-26.5s120.5 10.5 155.5 26.5c-10-42.5-36-80-71-107.5-12 8.5-35 17-84.5 17s-72.5-8.5-84.5-17zM224 95v136.5c0-21.5 19.5-17.5 56-51.5 33-31 62.5-69 70.5-125.5-7 20.5-49.5 37.5-126.5 41z" horiz-adv-x="384" />
<glyph unicode="&#xf09f;" d="M96 320l-96-128h64v-64h64v64h64l-96 128z" horiz-adv-x="192" />
<glyph unicode="&#xf0a0;" d="M128 256v64h-64v-64h-64l96-128 96 128h-64z" horiz-adv-x="192" />
<glyph unicode="&#xf0a1;" d="M128 256v64l-128-96 128-96v64h64v64h-64z" horiz-adv-x="192" />
<glyph unicode="&#xf0a2;" d="M160 352l-160-160 64-64 96 96 96-96 64 64-160 160z" horiz-adv-x="320" />
<glyph unicode="&#xf0a3;" d="M256 320l-96-96-96 96-64-64 160-160 160 160-64 64z" horiz-adv-x="320" />
<glyph unicode="&#xf0a4;" d="M224 320l-64 64-160-160 160-160 64 64-96 96 96 96z" horiz-adv-x="224" />
<glyph unicode="&#xf0a5;" d="M128.125 224l191.875-191.875v383.75l-191.875-191.875zM0 32h64v384h-64v-384z" horiz-adv-x="320" />
<glyph unicode="&#xf0a6;" d="M0 32.125l191.875 191.875-191.875 191.906v-383.781zM256 416v-384h64v384h-64z" horiz-adv-x="320" />
<glyph unicode="&#xf0a7;" d="M0 128h96v-160h128v160h96l-160 192-160-192zM0 480v-96h320v96h-320z" horiz-adv-x="320" />
<glyph unicode="&#xf0a8;" d="M320 320h-96v160h-128v-160h-96l160-192 160 192zM0-32h320v96h-320v-96z" horiz-adv-x="320" />
<glyph unicode="&#xf0a9;" d="M416 384v-320h96v320h-96zM160 288h-160v-128h160v-96l192 160-192 160v-96z" />
<glyph unicode="&#xf0aa;" d="M191.875 352l-191.875-191.875h383.75l-191.875 191.875z" horiz-adv-x="384" />
<glyph unicode="&#xf0ac;" d="M416 119s0 153 0 201-48 96-96 96c-32 0-32 0-32 0v64l-96-96 96-96v64s16 0 32 0 32-16 32-32 0-201 0-201c-19-11-32-31.5-32-55 0-35.5 28.5-64 64-64s64 28.5 64 64c0 23.5-13 44-32 55zM384 32c-17.5 0-32 14.5-32 32s14.5 32 32 32 32-14.5 32-32-14.5-32-32-32zM160 96s-16 0-32 0-32 16-32 32 0 201 0 201c19 11 32 31.5 32 55 0 35.5-28.5 64-64 64s-64-28.5-64-64c0-23.5 13-44 32-55 0 0 0-153 0-201s48-96 96-96c32 0 32 0 32 0v-64l96 96-96 96v-64zM64 352c-17.5 0-32 14.5-32 32s14.5 32 32 32 32-14.5 32-32-14.5-32-32-32z" horiz-adv-x="448" />
<glyph unicode="&#xf0af;" d="M160 480c-16 0-32-16-32-32s0-32 0-32h-32l-96-96v-64h96l32-192-64-32v-32h256v32l-64 32 32 192h96v64l-96 96h-128v32s7 0 16 0 16 8.5 16 16-8 16-16 16 0 0-16 0zM160 64l-26.5 160h59l-0.5-160h-32zM48 320l64 64h16v-32h32v32h112l64-64h-288z" horiz-adv-x="384" />
<glyph unicode="&#xf0b0;" d="M288 448h-288v-448h384v352l-96 96zM352 32h-320v384h224l96-96v-288zM192 256c-74.5 0-128-55.5-128-160 16 68 65.5 96 128 96v-64l128 96-128 96s0-39.5 0-64z" horiz-adv-x="384" />
<glyph unicode="&#xf0b1;" d="M416 384h-176c-8 0-16 8-16 16s0 0 0 16-16 32-32 32h-160c-16 0-32-16-32-32s0-352 0-352h448s0 272 0 288-16 32-32 32zM32 400c0 8.5 8 16 16 16h128c7.5 0 16-7.5 16-16s0-16 0-16h-160s0 7.5 0 16zM224 128v64c-62.5 0-112-28-128-96 0 104.5 53.5 160 128 160 0 24.5 0 64 0 64l128-96-128-96z" horiz-adv-x="448" />
<glyph unicode="&#xf0b2;" d="M384 448c-70.692 0-128-41.875-128-93.438 0-61.938 16-97.063 0-194.563 0 144-88.5 202.892-128 202.892 1.633 16.085-15.477 21.108-15.477 21.108s-7-3.562-9.677-10.791c-8.615 10.026-18.077 8.77-18.077 8.77l-4.245-18.541c0 0-58.523-20.438-59.318-103.146 6.794-10.792 49.45-19.343 79.738-13.851 28.578-1.478 21.495-25.324 15.097-31.723-26.998-26.999-52.040 9.282-84.040 9.282s-32-32 0-32 32-32 96-32c-99-38.5 0-128 0-128h-32c-32 0-32-32-32-32s128 0 192 0c96 0 160 32 160 111.091 0 27.17-13.849 57.315-32 81.114-35.471 46.512 7.226 85.578 32 63.795s96-32 96 64c0 70.692-57.308 128-128 128zM80 288c-8.837 0-16 7.163-16 16s7.163 16 16 16c8.837 0 16-7.163 16-16s-7.163-16-16-16z" />
<glyph unicode="&#xf0b6;" d="M256 416c-106.038 0-192-85.962-192-192s85.962-192 192-192c12.976 0 25.651 1.291 37.906 3.745-4.94 2.363-5.478 20.087-0.594 30.192 5.438 11.25 22.5 39.75 5.625 49.313s-12.188 13.875-22.5 24.938-6.095 12.726-6.75 15.563c-2.25 9.75 9.938 24.375 10.5 25.875s0.563 7.125 0.375 8.813-7.687 6.188-9.562 6.375-2.813-3-5.438-3.188-14.063 6.938-16.5 8.813-3.563 6.375-6.938 9.75-3.75 0.75-9 2.813-22.125 8.25-35.063 13.5-14.063 12.609-14.25 17.813-7.875 12.75-11.481 18.188c-3.605 5.438-4.269 12.938-5.582 11.25s6.75-21.375 5.438-21.938-4.125 5.438-7.875 10.313 3.938 2.25-8.063 25.875 3.75 35.672 4.5 48 10.125-4.5 5.25 3.375 0.375 24.375-3.375 30.375-25.125-6.75-25.125-6.75c0.563 5.813 18.75 15.75 31.875 24.938s21.141 2.063 31.688-1.313 11.25-2.25 7.688 1.125 1.5 5.063 9.75 3.75 10.5-11.25 23.063-10.313 1.313-2.438 3-5.625-1.875-2.813-10.125-8.438 0.188-5.625 14.813-16.313 10.125 7.125 8.625 15 10.688 1.688 10.688 1.688c9-6 7.337-0.33 13.899-2.392s24.351-17.108 24.351-17.108c-22.313-12.188-8.25-13.5-4.5-16.313s-7.688-8.25-7.688-8.25c-4.688 4.688-5.438-0.188-8.438-1.875s-0.188-6-0.188-6c-15.515-2.438-12-18.75-11.813-22.688s-9.938-9.938-12.563-15.563 6.75-17.813 1.875-18.563-9.75 18.375-36 11.25c-7.914-2.149-25.5-11.25-16.125-29.813s24.938 5.25 30.188 2.625-1.5-14.438-0.375-14.625 14.813-0.516 15.563-16.5 20.813-14.625 25.125-15 18.75 11.813 20.813 12.375 10.313 7.5 28.313-2.813 27.188-8.813 33.375-13.125 1.875-12.938 7.688-15.75 29.063 0.938 34.875-8.625-24-57.563-33.375-62.813-13.688-17.25-23.063-24.938-22.5-17.203-34.875-24.563c-10.954-6.514-12.925-18.183-17.805-21.866 85.928 19.089 150.18 95.754 150.18 187.429 0 106.038-85.962 192-192 192zM301 235.813c-2.625-0.75-8.063-5.625-21.375 2.25s-22.5 6.375-23.625 7.688c0 0-1.125 3.188 4.688 3.75 11.935 1.155 27-11.063 30.375-11.25s5.063 3.375 11.063 1.441c6-1.931 1.5-3.129-1.125-3.879zM238.188 396.875c-1.308 0.951 1.083 2.046 2.508 3.938 0.822 1.093 0.213 2.908 1.242 3.938 2.813 2.813 16.688 6.75 13.975-0.938-2.712-7.688-15.662-8.438-17.725-6.938zM271.75 372.5c-4.688 0.188-15.721 1.353-13.688 3.375 7.922 7.875-3 10.125-9.75 10.688s-9.563 4.313-6.188 4.688 16.875-0.188 19.125-2.063 14.438-6.75 15.188-10.313 0-6.563-4.688-6.375zM312.438 373.813c-3.75-3-22.62 10.764-26.25 13.875-15.75 13.5-24.188 9-27.495 11.25-3.309 2.25-2.13 5.25 2.933 9.75s19.313-1.5 27.563-2.438 17.813-7.313 18-14.89c0.188-7.578 9-14.547 5.25-17.547z" />
<glyph unicode="&#xf0ba;" d="M64 288h-64v-128h64l128-96h32v320h-32l-128-96zM269.255 269.255c-6.248 6.249-16.379 6.249-22.627 0s-6.248-16.379 0-22.627c12.497-12.496 12.497-32.758 0-45.255-6.248-6.248-6.248-16.379 0-22.627s16.38-6.248 22.627 0c24.993 24.995 24.993 65.517 0 90.51zM314.51 314.51c-6.248 6.249-16.379 6.249-22.627 0s-6.248-16.379 0-22.627c37.49-37.49 37.49-98.274 0-135.764-6.248-6.248-6.248-16.38 0-22.628s16.38-6.248 22.627 0c49.987 49.987 49.987 131.033 0 181.019zM359.764 359.764c-6.248 6.249-16.38 6.249-22.627 0s-6.248-16.379 0-22.627c62.484-62.484 62.484-163.79 0-226.274-6.248-6.248-6.248-16.38 0-22.627s16.379-6.248 22.627 0c74.981 74.981 74.981 196.548 0 271.529z" horiz-adv-x="448" />
<glyph unicode="&#xf0bb;" d="M0 64h96v320h-96v-320zM160 384v-320h96v320h-96z" horiz-adv-x="256" />
<glyph unicode="&#xf0bc;" d="M192 224l192-128v256l-192-128zM0 224l192-128v256l-192-128z" horiz-adv-x="384" />
<glyph unicode="&#xf0bd;" d="M0 96l192 128-192 128v-256zM384 224l-192 128v-256l192 128z" horiz-adv-x="384" />
<glyph unicode="&#xf0be;" d="M233.349 430.45c-114.019 14-217.798-67.082-231.798-181.101s67.082-217.799 181.1-231.798c35.715-4.378 72.558 0.457 106.662 14.973l-0.008 0.016c12.202 5.178 17.894 19.269 12.716 31.469-5.18 12.202-19.269 17.894-31.47 12.715l-0 0.002c-26.236-11.169-54.575-14.899-82.050-11.534-87.707 10.769-150.077 90.6-139.308 178.306s90.6 150.077 178.306 139.308c87.706-10.769 150.077-90.6 139.309-178.306-2.154-17.541-10.771-27.863-30.8-27.863-21.25 0-32 22.945-32 40.611v62.75c0 13.255-10.745 24-24 24-4.849 0-9.36-1.444-13.135-3.916-12.842 10.13-28.719 16.935-47.174 19.201-52.623 6.462-100.522-30.962-106.984-83.585s30.962-100.522 83.585-106.983c28.69-3.522 58.108 7.353 78.936 26.565 12.479-14.062 29.933-23.812 50.060-26.284 43.853-5.385 83.769 25.801 89.154 69.654 14 114.018-67.082 217.798-181.101 231.798zM255.643 218.151c-3.231-26.312-27.18-45.024-53.493-41.793s-45.023 27.18-41.792 53.492c3.231 26.311 27.18 45.023 53.492 41.792s45.023-27.18 41.793-53.492z" horiz-adv-x="416" />
<glyph unicode="&#xf0bf;" d="M0 384l256-160-256-160v320z" horiz-adv-x="256" />
<glyph unicode="&#xf0c0;" d="M377.875 192.425c-6.975 4.98-14.26 8.295-21.735 9.96-4.42 0.845-9.030 1.165-13.785 0.905-4.495-0.25-8.78-0.84-12.845-1.76-3.050-0.845-6.11-1.945-9.175-3.295-9.090-4.010-16.945-9.060-23.395-15.165-6.11-6.45-11.16-14.31-15.17-23.395-1.35-3.060-2.45-6.12-3.295-9.17-0.92-4.070-1.515-8.35-1.76-12.845-0.26-4.755 0.060-9.365 0.905-13.785 1.665-7.475 4.98-14.76 9.96-21.735 1.945-2.72 4.040-5.2 6.28-7.44 10.030-10.015 22.915-15.35 37.71-17.055 4.46-0.51 9.060-0.84 13.265-2.24 2.56-0.85 4.58-2.040 6.040-3.51 3.325-3.3 3.815-8.050 1.25-13.62-1.575-3.42-3.85-6.725-6.48-9.42l-1.395-1.43c-1.965-1.96-3.205-3.2-3.525-3.52-1.565-1.58-3.050-3.075-4.53-4.575l-1.48-1.46c-5.26-5.29-10.545-10.56-15.83-15.825-11.38-11.41-22.785-22.79-34.19-34.18-3.75-3.75-7.5-7.5-11.25-11.245-1.73-1.725-3.535-3.19-5.39-4.395-0.9-0.61-1.745-1.12-2.59-1.58-9.8-4.945-20.715-2.96-29.62 5.94-2.7 2.7-5.31 5.31-7.925 7.92-15.125 15.125-30.24 30.26-45.385 45.365-4.295 4.285-8.565 8.54-12.84 12.795-3.060 3.045-6.335 5.925-9.78 8.53-2.86 2.165-5.795 3.78-8.73 4.865-10.58 3.66-20.705 1.005-27.335-6.63-1.905-2.4-3.5-5.235-4.695-8.47-1.715-4.63-2.3-9.735-2.95-14.68-2.45-18.765-12.9-34.215-27.99-41.325-3.74-1.825-7.745-3.145-11.95-3.89-3.975-0.705-7.975-0.855-11.925-0.52-13.305 0.675-24.74 6.545-34.255 16.285-0.84 0.835-1.050 1.045-1.255 1.255-9.74 9.51-15.61 20.95-16.285 34.25-0.34 3.95-0.185 7.95 0.52 11.925 0.745 4.205 2.065 8.215 3.89 11.95 7.11 15.090 22.565 25.535 41.325 27.985 4.945 0.645 10.050 1.235 14.68 2.95 3.47 1.28 6.48 3.025 8.985 5.115 7.27 6.575 9.795 16.315 6.42 26.17-1.39 3.675-3 6.61-5.165 9.47-2.605 3.44-5.485 6.715-8.53 9.775-4.255 4.275-8.515 8.545-12.775 12.815-13.46 13.49-26.92 26.94-40.375 40.39l-5.015 5.015c-2.61 2.61-5.225 5.225-7.63 7.635-9.195 9.2-11.175 20.11-6.23 29.91 0.46 0.845 0.97 1.685 1.54 2.525 1.245 1.92 2.71 3.725 4.435 5.455 3.745 3.75 7.495 7.5 11.245 11.25 11.385 11.405 22.77 22.81 34.18 34.19 5.265 5.285 10.53 10.57 15.825 15.83l1.46 1.48c1.495 1.485 2.995 2.965 4.49 4.45 0.4 0.405 1.64 1.645 3.6 3.61l1.43 1.395c2.695 2.63 6 4.9 9.42 6.48 5.57 2.565 10.315 2.075 13.62-1.25 1.47-1.46 2.66-3.48 3.51-6.040 1.395-4.205 1.725-8.805 2.24-13.265 1.705-14.795 7.040-27.675 17.055-37.705 2.245-2.24 4.72-4.335 7.44-6.28 6.975-4.98 14.26-8.295 21.735-9.96 4.42-0.845 9.030-1.165 13.785-0.905 4.495 0.25 8.78 0.84 12.845 1.76 3.050 0.845 6.11 1.945 9.175 3.295 9.090 4.010 16.945 9.060 23.395 15.165 6.11 6.45 11.16 14.31 15.17 23.395 1.35 3.060 2.45 6.12 3.295 9.17 0.92 4.070 1.515 8.35 1.76 12.845 0.26 4.755-0.060 9.365-0.905 13.785-1.665 7.475-4.98 14.76-9.96 21.735-1.945 2.72-4.040 5.2-6.28 7.44-10.030 10.015-22.915 15.35-37.71 17.055-4.46 0.51-9.060 0.84-13.265 2.24-2.56 0.85-4.58 2.040-6.040 3.51-3.325 3.3-3.815 8.050-1.25 13.62 1.575 3.42 3.85 6.725 6.48 9.42l1.395 1.43c1.965 1.96 3.205 3.2 3.525 3.52 1.565 1.58 3.050 3.075 4.53 4.575l1.48 1.46c5.26 5.29 10.545 10.56 15.83 15.825 11.38 11.41 22.785 22.79 34.19 34.175 3.75 3.75 7.5 7.5 11.25 11.245 1.73 1.725 3.535 3.19 5.39 4.395 0.9 0.61 1.745 1.12 2.59 1.58 9.8 4.945 20.715 2.96 29.62-5.94 2.7-2.7 5.31-5.31 7.925-7.92 15.125-15.125 30.24-30.26 45.385-45.365 4.295-4.285 8.565-8.54 12.84-12.795 3.060-3.045 6.335-5.925 9.78-8.53 2.86-2.165 5.795-3.78 8.73-4.865 10.58-3.66 20.705-1.005 27.335 6.63 1.905 2.4 3.5 5.235 4.695 8.47 1.715 4.63 2.3 9.735 2.95 14.68 2.45 18.765 12.9 34.215 27.99 41.325 3.74 1.825 7.745 3.14 11.95 3.89 3.975 0.705 7.975 0.855 11.925 0.52 13.305-0.675 24.74-6.545 34.255-16.285 0.84-0.835 1.050-1.045 1.255-1.255 9.74-9.51 15.61-20.95 16.285-34.25 0.34-3.95 0.185-7.95-0.52-11.925-0.745-4.205-2.065-8.215-3.89-11.95-7.11-15.090-22.565-25.535-41.325-27.985-4.945-0.645-10.050-1.235-14.68-2.95-3.47-1.28-6.48-3.025-8.985-5.115-7.27-6.575-9.795-16.315-6.42-26.17 1.39-3.675 3-6.61 5.165-9.47 2.605-3.44 5.485-6.715 8.53-9.775 4.255-4.275 8.515-8.545 12.775-12.815 15.13-15.165 30.27-30.28 45.39-45.405 2.61-2.61 5.225-5.225 7.63-7.635 9.195-9.2 11.175-20.11 6.23-29.91-0.46-0.845-0.97-1.685-1.54-2.525-1.245-1.92-2.71-3.725-4.435-5.455-3.745-3.75-7.495-7.5-11.245-11.25-11.385-11.405-22.77-22.81-34.18-34.19-5.265-5.285-10.53-10.57-15.825-15.83l-1.46-1.48c-1.495-1.485-2.995-2.965-4.49-4.45-0.4-0.405-1.64-1.645-3.6-3.61l-1.43-1.395c-2.695-2.63-6-4.9-9.42-6.48-5.57-2.565-10.315-2.075-13.62 1.25-1.47 1.46-2.66 3.48-3.51 6.040-1.395 4.205-1.725 8.805-2.24 13.265-1.705 14.795-7.040 27.675-17.055 37.705-2.24 2.245-4.72 4.345-7.44 6.285z" />
<glyph unicode="&#xf0c4;" d="M240 448l-240-64v-288l240-64 240 64v288l-240 64zM31.938 119.533l-0.188 216.467 192.249-51.266 0-216.417-192.062 51.216zM31.75 368l80.127 21.367 208.123-55.567-80-21.334-208.25 55.534zM448.063 119.533l-192.062-51.216 0 216.417 63.999 17.066v-78l64 17.067v77.999l64.25 17.134-0.188-216.467zM384 350.866v0.063l-208.133 55.502 64.133 17.102 208.25-55.533-64.25-17.134z" />
<glyph unicode="&#xf0c5;" d="M160 384h32v-32h-32v32zM96 384h32v-32h-32v32zM32 384h32v-32h-32v32zM416 64h-384v256h384v-256zM416 352h-192v32h192v-32zM448 384c0 17.675-14.325 32-32 32h-384c-17.675 0-32-14.325-32-32v-320c0-17.675 14.325-32 32-32h384c17.675 0 32 14.325 32 32v320z" horiz-adv-x="448" />
<glyph unicode="&#xf0c6;" d="M224 352l-128 128-96-96 155.5-150c7.5 40.5 21.5 68 66.5 115l2.5 3zM288 480l66.5-66.5-98.5-98.5c-49.5-49.5-64-81-64-154.5v-192h128v192c0 26 9.5 47 26.5 64l98.5 98.5 66.5-66.5v224h-224z" />
<glyph unicode="&#xf0c7;" d="M68 448c-37.555 0-68-50.145-68-112 0-34.415 8.51-70.92 17-127.27 6.65-44.145 22.835-80.73 51-80.73s47.040 24.395 47.040 68.985c0 15.185-12.485 39.375-13.040 60.015-1.010 37.23 24.965 52.085 24.965 86.5 0 61.855-21.415 104.5-58.965 104.5zM251.485 320c-37.55 0-58.965-42.645-58.965-104.5 0-34.415 25.975-49.27 24.965-86.5-0.554-20.64-13.040-44.83-13.040-60.015 0-44.59 18.875-68.985 47.040-68.985s44.35 36.585 51 80.73c8.49 56.35 17 92.855 17 127.27 0 61.855-30.445 112-68 112z" horiz-adv-x="320" />
<glyph unicode="&#xf0c8;" d="M415.5 416.5h-384c-17.675 0-32-14.325-32-32v-320c0-17.675 14.325-32 32-32h384c17.675 0 32 14.325 32 32v320c0 17.675-14.325 32-32 32zM63.5 192.5l64 64-64 64 32 32 96-96-96-96-32 32zM319.5 160.5h-128v32h128v-32z" horiz-adv-x="448" />
<glyph unicode="&#xf0c9;" d="M475.077 384h-438.154c-20.36 0-36.923-16.563-36.923-36.923v-246.154c0-20.361 16.564-36.923 36.923-36.923h438.154c20.361 0 36.923 16.563 36.923 36.923v246.154c0 20.36-16.563 36.923-36.923 36.923zM288 128.063l-64-0.063v96l-48-61.538-48 61.538v-96h-64v192h64l48-64 48 64 64 0.063v-192zM383.546 112.063l-79.546 111.938h48v96h64v-96h48l-80.454-111.938z" />
<glyph unicode="&#xf0ca;" d="M0 256v-64h256v64h-256z" horiz-adv-x="256" />
<glyph unicode="&#xf0cc;" d="M448 352h-112l-32-32h96l-64-64h-224l-64 64h96l-32 32h-112v-32l80-80-80-80v-32h112l32 32h-96l64 64h224l64-64h-96l32-32h112v32l-80 80 80 80v32zM320 384h-64v96h-64v-96h-64l96-96 96 96zM128 96h64v-96h64v96h64l-96 96-96-96z" horiz-adv-x="448" />
<glyph unicode="&#xf0cf;" d="M352 384h-320l-32-192v-128h384v128l-32 192zM288 192l-32-64h-128l-32 64h-56.5l24.5 160h256l24.5-160h-56.5z" horiz-adv-x="384" />
<glyph unicode="&#xf0d0;" d="M352 416h-128c0 0 0 12.029 0 16 0 8.837-7.163 16-16 16s-16-7.163-16-16c0-8.837 0-16 0-16h-128c-17.673 0-32-14.327-32-32v-32c0-17.673 14.327-32 32-32v-288c0-17.673 14.327-32 32-32h224c17.673 0 32 14.327 32 32v288c17.673 0 32 14.327 32 32v32c0 17.673-14.327 32-32 32zM320 48c0-8.837-7.163-16-16-16h-192c-8.837 0-16 7.163-16 16v272h32v-240c0-8.837 7.163-16 16-16s16 7.163 16 16l0.194 240h31.806v-240c0-8.837 7.163-16 16-16s16 7.163 16 16l0.194 240h32l-0.194-240c0-8.837 7.164-16 16-16s16 7.163 16 16v240h32v-272zM352 360c0-4.418-3.582-8-8-8h-272c-4.418 0-8 3.582-8 8v16c0 4.418 3.582 8 8 8h272c4.418 0 8-3.582 8-8v-16z" horiz-adv-x="384" />
<glyph unicode="&#xf0d1;" d="M192 480c-106.038 0-192-85.962-192-192v-32c0-17.673 14.327-32 32-32v-160c0-35.346 71.635-64 160-64s160 28.654 160 64v160c17.673 0 32 14.327 32 32v32c0 106.038-85.962 192-192 192zM288 160v-16c0-8.837-7.163-16-16-16s-16 7.163-16 16v16c0 8.837-7.163 16-16 16s-16-7.163-16-16v-80c0-8.837-7.163-16-16-16s-16 7.163-16 16v64c0 8.837-7.163 16-16 16s-16-7.163-16-16v-16c0-17.673-14.327-32-32-32s-32 14.327-32 32v32c-17.673 0-32 14.327-32 32v57.596c29.191-15.542 75.659-25.596 128-25.596s98.809 10.054 128 25.596v-57.596c0-17.673-14.327-32-32-32zM192 256c-53.716 0-99.697 13.237-118.686 32 18.989 18.763 64.97 32 118.686 32s99.697-13.237 118.686-32c-18.99-18.763-64.969-32-118.686-32zM192 352c-88.31 0-159.908-28.618-159.998-63.933-0.001 0-0.001 0-0.002 0.001 0.037 88.334 71.656 159.933 160 159.933 88.365 0 160-71.635 160-160 0 35.346-71.635 64-160 64z" horiz-adv-x="384" />
<glyph unicode="&#xf0d2;" d="M216.5 457.5c25-67 12-103.5-16-132.5-30.5-32-78-56-111.5-103-44.5-62.5-52-200 108.5-236-67.5 35.5-82 138.5-9 203-19-62.5 16-102.5 59.5-88 42.5 14.5 70.5-16 69.5-51-0.5-24-10-44.5-34.5-56 104.5 18.5 146.5 105 146.5 171 0 87-77.5 99-38.5 172-46.5-4-62.5-34.5-58-84.5 3-33-31.5-55.5-57-40.5-20.5 12.5-20 36.5-2 54.5 38.5 38 53.5 125.5-57.5 191z" />
<glyph unicode="&#xf0d3;" d="M448 384h-128v33c0 17.1-13.9 31-31 31h-66c-17.1 0-31-13.9-31-31v-33h-128c-17.65 0-32-14.35-32-32v-256c0-17.65 14.35-32 32-32h384c17.65 0 32 14.35 32 32v256c0 17.65-14.35 32-32 32zM224 408c0 4.4 3.6 8 8 8h48c4.4 0 8-3.6 8-8v-24h-64v24zM448 224h-160v-32h-64v32h-160v128h32v-96h320v96h32v-128z" />
<glyph unicode="&#xf0d4;" d="M501.693 377.668l-0.452 0.452c-12.372 12.372-32.43 12.372-44.803 0l-22.853-22.853-45.255 45.255 22.853 22.853c12.372 12.372 12.372 32.431 0 44.803l-0.452 0.453c-12.372 12.372-32.43 12.372-44.803 0l-23.986-23.987c-31.062 20.579-73.323 17.186-100.69-10.181l-12.445-12.445c-54.505-54.505-60.974-138.846-19.427-200.446l-2.069-2.069c-31.196-31.196-31.242-81.747-0.137-113 6.205-6.235 6.321-16.663 0.060-22.841-6.255-6.171-16.327-6.146-22.55 0.077l-44.714 44.714c-31.319 31.319-82.315 31.873-113.65 0.57-31.271-31.24-31.281-81.915-0.029-113.166l4.381-4.382c12.372-12.372 32.431-12.372 44.803 0l0.453 0.452c12.372 12.372 12.372 32.43 0 44.803l-4.146 4.146c-6.165 6.164-6.543 16.209-0.549 22.541 6.219 6.569 16.587 6.676 22.941 0.322l44.664-44.664c31.46-31.46 82.752-31.907 114.041-0.276 30.897 31.234 30.825 81.581-0.215 112.726-6.275 6.296-6.388 16.433-0.103 22.719l2.076 2.075c61.6-41.548 145.94-35.079 200.446 19.427l12.445 12.445c27.367 27.368 30.76 69.629 10.181 100.691l23.986 23.987c12.372 12.37 12.372 32.429 0 44.8zM444.898 230.816c-18.745-18.745-49.137-18.745-67.882 0l-113.137 113.137c-18.745 18.745-18.745 49.137 0 67.883 14.778 14.778 36.793 17.902 54.635 9.379l-20.919-20.919c-12.372-12.372-12.372-32.43 0-44.802l0.452-0.453c12.372-12.372 32.43-12.372 44.803 0l22.853 22.853 45.255-45.255-22.853-22.853c-12.372-12.372-12.372-32.43 0-44.803l0.452-0.452c12.372-12.372 32.43-12.372 44.802 0l20.919 20.92c8.522-17.841 5.398-39.857-9.38-54.635z" />
<glyph unicode="&#xf0d6;" d="M160 352c17.673 0 32-14.327 32-32s-14.327-32-32-32-32 14.327-32 32c0 17.673 14.327 32 32 32zM480 96c0-53.019-42.981-96-96-96h-224l96 96h40.564c11.066-19.129 31.747-32 55.436-32 35.346 0 64 28.654 64 64s-28.654 64-64 64c-23.688 0-44.37-12.871-55.436-32h-72.564l-145.978-145.978c-27.599 16.862-46.022 47.268-46.022 81.978v256c0 53.019 42.98 96 96 96v-72.564c-19.129-11.066-32-31.748-32-55.436 0-35.346 28.654-64 64-64 23.638 0 44.28 12.817 55.364 31.878l81.208 0.109c11.068-19.122 31.745-31.987 55.428-31.987 35.346 0 64 28.654 64 64s-28.654 64-64 64c-23.694 0-44.379-12.877-55.443-32.013l-81.048-0.11c-5.623 9.77-13.751 17.914-23.508 23.558v72.564h192c53.019 0 96-42.981 96-96v-256zM320 128c0 17.673 14.327 32 32 32s32-14.327 32-32c0-17.673-14.327-32-32-32s-32 14.327-32 32zM320 320c0 17.673 14.327 32 32 32s32-14.327 32-32c0-17.673-14.327-32-32-32s-32 14.327-32 32z" />
<glyph unicode="&#xf0d7;" d="M250.5 186l-122.5 38s0-48 0-80 57.5-48 128-48 128 16 128 48 0 80 0 80l-122.5-38c-3.5-1-7.5-1-11.5 0h0.5zM259.5 390.5c-2 0.5-4.5 0.5-6.5 0l-244.5-76c-10.5-3.5-10.5-18 0-21.5l55.5-17.5v-56.5c-9.5-5.5-16-16-16-27.5 0-6 1.5-11.5 4.5-16-2.5-4.5-4.5-10-4.5-16v-82.5c0-17.5 64-17.5 64 0v82.5c0 6-1.5 11.5-4.5 16 2.5 4.5 4.5 10 4.5 16 0 12-6.5 22-16 27.5v46.5l156.5-49c2-0.5 4.5-0.5 6.5 0l244.5 76c10.5 3.5 10.5 18 0 21.5l-244 76.5zM256.5 288c-17.5 0-32 7-32 16s14.5 16 32 16 32-7 32-16-14.5-16-32-16z" />
<glyph unicode="&#xf0d8;" d="M257 384c17 0.5 30.5 14 31 31 0.5 18.5-14.5 33.5-33 33-17-0.5-30.5-14-31-31-0.5-18.5 14.5-33.5 33-33zM489 192h-9l-63.5 123c9 1 18 4.5 26 8 12 5.5 14.5 21.5 5.5 31l-0.5 0.5c-5.5 5.5-14 7.5-21.5 4-7-3-17-6.5-26.5-6.5-28 0-40.5 32-143.5 32s-115.5-32-143.5-32c-10 0-19.5 3-26.5 6.5-7.5 3-16 1.5-21.5-4l-0.5-0.5c-9-9.5-6.5-25 5.5-31 8-4 17-7 26-8l-63.5-123h-9c-4 0-7-3.5-6.5-7.5 5.5-32 46-56.5 95.5-56.5s90 24.5 95.5 56.5c0.5 4-2.5 7.5-6.5 7.5h-9l-63.5 122.5c41.5 3.5 63.5 24.5 95.5 24.5v-243c-17.5 0-32-14.5-32-32h-35.5c-14 0-28.5-14.5-28.5-32h256c0 17.5-14.5 32-35.5 32h-28.5c0 17.5-14.5 32-32 32v243c32 0 54-21 95.5-24.5l-63.5-122.5h-9c-4 0-7-3.5-6.5-7.5 5.5-32 46-56.5 95.5-56.5s90 24.5 95.5 56.5c0.5 4-2.5 7.5-6.5 7.5zM160 192h-96l48 90 48-90zM352 192l48 90 48-90h-96z" />
<glyph unicode="&#xf27c;" d="M480 448c-16 0-432 0-448 0s-32-16-32-32 0-272 0-288 16-32 32-32 160 0 160 0-96-32-96-64c0-16 16-32 32-32s240 0 256 0 32 16 32 32c0 32-96 64-96 64s144 0 160 0 32 16 32 32 0 272 0 288-16 32-32 32zM480 128h-448v288h448v-288zM448 384h-96c-192-32-271-150-288-192v-32h384v224z" />
</font>
</defs>
</svg>
